<svg width="901" height="468" viewBox="0 0 901 468" fill="none" xmlns="http://www.w3.org/2000/svg">
<g clip-path="url(#clip0)">
<g opacity="0.1">
<path opacity="0.1" d="M394.122 307C399.288 307 403.477 301.568 403.477 294.867C403.477 288.166 399.288 282.734 394.122 282.734C388.955 282.734 384.766 288.166 384.766 294.867C384.766 301.568 388.955 307 394.122 307Z" fill="#3F3D56"/>
<path opacity="0.1" d="M401.529 242.957C402.834 240.7 403.509 238.14 403.485 235.539C403.485 228.838 399.293 223.406 394.122 223.406C388.951 223.406 384.734 228.854 384.734 235.555C384.71 238.156 385.385 240.716 386.69 242.973C385.408 245.238 384.734 247.791 384.734 250.387C384.734 252.984 385.408 255.537 386.69 257.802C385.408 260.066 384.734 262.619 384.734 265.216C384.734 267.812 385.408 270.365 386.69 272.63C385.383 274.886 384.707 277.447 384.734 280.048C384.734 286.741 388.926 292.18 394.089 292.18C399.252 292.18 403.452 286.741 403.452 280.048C403.479 277.447 402.803 274.886 401.496 272.63C402.778 270.365 403.452 267.812 403.452 265.216C403.452 262.619 402.778 260.066 401.496 257.802C402.778 255.537 403.452 252.984 403.452 250.387C403.452 247.791 402.778 245.238 401.496 242.973L401.529 242.957Z" fill="#3F3D56"/>
<path opacity="0.1" d="M394.122 232.86C399.288 232.86 403.477 227.428 403.477 220.728C403.477 214.027 399.288 208.595 394.122 208.595C388.955 208.595 384.766 214.027 384.766 220.728C384.766 227.428 388.955 232.86 394.122 232.86Z" fill="#3F3D56"/>
<path opacity="0.1" d="M394.122 218.032C399.288 218.032 403.477 212.6 403.477 205.899C403.477 199.199 399.288 193.767 394.122 193.767C388.955 193.767 384.766 199.199 384.766 205.899C384.766 212.6 388.955 218.032 394.122 218.032Z" fill="#3F3D56"/>
<path opacity="0.1" d="M359.101 104.415C357.819 102.805 356.654 101.107 355.615 99.334L380.196 95.3358L353.61 95.5313C351.064 90.0315 349.679 84.0752 349.537 78.0268C349.396 71.9783 350.502 65.9649 352.787 60.3543L388.458 78.6838L355.574 54.7277C358.631 49.4043 362.767 44.7649 367.722 41.1011C372.676 37.4373 378.343 34.8284 384.364 33.4382C390.386 32.0481 396.633 31.9069 402.712 33.0235C408.792 34.14 414.572 36.4902 419.69 39.9263C424.808 43.3624 429.154 47.8101 432.453 52.9897C435.752 58.1694 437.934 63.9691 438.861 70.0243C439.788 76.0794 439.44 82.259 437.84 88.1747C436.24 94.0903 433.421 99.6141 429.562 104.399C431.555 106.907 433.269 109.621 434.675 112.493L402.753 128.958L436.779 117.647C439.171 124.643 439.762 132.12 438.501 139.4C437.239 146.68 434.164 153.533 429.553 159.338C434.754 165.887 437.989 173.752 438.89 182.036C439.79 190.32 438.318 198.687 434.644 206.182C430.969 213.676 425.239 219.995 418.11 224.416C410.98 228.837 402.739 231.182 394.327 231.182C385.916 231.182 377.674 228.837 370.545 224.416C363.415 219.995 357.685 213.676 354.011 206.182C350.336 198.687 348.865 190.32 349.765 182.036C350.665 173.752 353.9 165.887 359.101 159.338C352.886 151.513 349.507 141.846 349.507 131.889C349.507 121.932 352.886 112.265 359.101 104.44V104.415Z" fill="white"/>
<path opacity="0.1" d="M439.147 131.864C439.163 141.823 435.783 151.496 429.553 159.314C434.754 165.862 437.989 173.728 438.89 182.011C439.79 190.295 438.318 198.663 434.644 206.157C430.969 213.652 425.239 219.971 418.11 224.392C410.98 228.813 402.739 231.157 394.327 231.157C385.916 231.157 377.674 228.813 370.545 224.392C363.415 219.971 357.685 213.652 354.011 206.157C350.336 198.663 348.865 190.295 349.765 182.011C350.665 173.728 353.9 165.862 359.101 159.314C353.092 151.757 439.147 126.881 439.147 131.864Z" fill="black"/>
</g>
<g opacity="0.1">
<path opacity="0.1" d="M503.343 277.987C507.207 277.987 510.339 273.93 510.339 268.924C510.339 263.919 507.207 259.861 503.343 259.861C499.48 259.861 496.347 263.919 496.347 268.924C496.347 273.93 499.48 277.987 503.343 277.987Z" fill="#3F3D56"/>
<path opacity="0.1" d="M508.868 230.14C509.84 228.455 510.343 226.544 510.323 224.603C510.323 219.595 507.191 215.532 503.335 215.532C499.48 215.532 496.339 219.604 496.339 224.603C496.318 226.545 496.823 228.458 497.803 230.14C496.843 231.833 496.34 233.741 496.34 235.682C496.34 237.622 496.843 239.531 497.803 241.223C496.843 242.915 496.34 244.823 496.34 246.764C496.34 248.705 496.843 250.613 497.803 252.305C496.823 253.988 496.318 255.9 496.339 257.842C496.339 262.85 499.471 266.913 503.335 266.913C507.199 266.913 510.323 262.842 510.323 257.842C510.343 255.901 509.84 253.99 508.868 252.305C509.819 250.61 510.319 248.703 510.319 246.764C510.319 244.825 509.819 242.918 508.868 241.223C509.819 239.528 510.319 237.621 510.319 235.682C510.319 233.742 509.819 231.835 508.868 230.14Z" fill="#3F3D56"/>
<path opacity="0.1" d="M503.343 222.584C507.207 222.584 510.339 218.526 510.339 213.521C510.339 208.516 507.207 204.458 503.343 204.458C499.48 204.458 496.347 208.516 496.347 213.521C496.347 218.526 499.48 222.584 503.343 222.584Z" fill="#3F3D56"/>
<path opacity="0.1" d="M503.343 211.502C507.207 211.502 510.339 207.444 510.339 202.439C510.339 197.434 507.207 193.376 503.343 193.376C499.48 193.376 496.347 197.434 496.347 202.439C496.347 207.444 499.48 211.502 503.343 211.502Z" fill="#3F3D56"/>
<path opacity="0.1" d="M477.168 126.605C476.208 125.404 475.337 124.135 474.562 122.81L492.936 119.822L473.066 119.968C471.16 115.859 470.12 111.408 470.01 106.887C469.9 102.366 470.721 97.8706 472.425 93.6751L499.085 107.379L474.497 89.4652C476.796 85.5145 479.893 82.0756 483.594 79.3633C487.295 76.651 491.521 74.7235 496.008 73.7011C500.495 72.6787 505.146 72.5834 509.672 73.421C514.197 74.2586 518.5 76.0113 522.311 78.5696C526.123 81.1278 529.361 84.4368 531.823 88.2899C534.286 92.143 535.92 96.4576 536.624 100.964C537.328 105.471 537.087 110.073 535.915 114.483C534.744 118.893 532.667 123.017 529.814 126.596C531.302 128.473 532.584 130.501 533.637 132.647L509.797 144.918L535.224 136.466C537.01 141.694 537.451 147.281 536.508 152.721C535.565 158.16 533.267 163.281 529.823 167.62C533.714 172.512 536.137 178.39 536.813 184.582C537.49 190.774 536.393 197.029 533.648 202.632C530.903 208.236 526.622 212.96 521.293 216.266C515.964 219.572 509.804 221.325 503.516 221.325C497.228 221.325 491.068 219.572 485.739 216.266C480.41 212.96 476.128 208.236 473.384 202.632C470.639 197.029 469.542 190.774 470.219 184.582C470.895 178.39 473.318 172.512 477.209 167.62C472.565 161.772 470.04 154.548 470.04 147.108C470.04 139.668 472.565 132.444 477.209 126.596L477.168 126.605Z" fill="white"/>
<path opacity="0.1" d="M536.983 147.116C536.994 154.558 534.468 161.786 529.814 167.628C533.705 172.52 536.128 178.398 536.805 184.59C537.481 190.782 536.384 197.037 533.64 202.64C530.895 208.244 526.613 212.968 521.285 216.274C515.956 219.58 509.795 221.333 503.507 221.333C497.22 221.333 491.059 219.58 485.73 216.274C480.402 212.968 476.12 208.244 473.375 202.64C470.631 197.037 469.534 190.782 470.21 184.59C470.887 178.398 473.309 172.52 477.201 167.628C472.696 161.985 536.983 143.395 536.983 147.116Z" fill="black"/>
</g>
<g opacity="0.1">
<path opacity="0.1" d="M853.796 274.429C858.963 274.429 863.151 268.997 863.151 262.296C863.151 255.595 858.963 250.163 853.796 250.163C848.629 250.163 844.441 255.595 844.441 262.296C844.441 268.997 848.629 274.429 853.796 274.429Z" fill="#3F3D56"/>
<path opacity="0.1" d="M846.389 210.386C845.084 208.129 844.409 205.569 844.433 202.968C844.433 196.266 848.625 190.835 853.796 190.835C858.967 190.835 863.151 196.266 863.151 202.968C863.175 205.569 862.5 208.129 861.195 210.386C862.477 212.65 863.151 215.203 863.151 217.8C863.151 220.396 862.477 222.949 861.195 225.214C862.477 227.478 863.151 230.031 863.151 232.628C863.151 235.224 862.477 237.777 861.195 240.042C862.502 242.298 863.178 244.859 863.151 247.46C863.151 254.153 858.959 259.593 853.796 259.593C848.633 259.593 844.433 254.153 844.433 247.46C844.406 244.859 845.082 242.298 846.389 240.042C845.107 237.777 844.433 235.224 844.433 232.628C844.433 230.031 845.107 227.478 846.389 225.214C845.107 222.949 844.433 220.396 844.433 217.8C844.433 215.203 845.107 212.65 846.389 210.386Z" fill="#3F3D56"/>
<path opacity="0.1" d="M853.796 200.289C858.963 200.289 863.151 194.857 863.151 188.156C863.151 181.455 858.963 176.023 853.796 176.023C848.629 176.023 844.441 181.455 844.441 188.156C844.441 194.857 848.629 200.289 853.796 200.289Z" fill="#3F3D56"/>
<path opacity="0.1" d="M853.796 185.461C858.963 185.461 863.151 180.029 863.151 173.328C863.151 166.627 858.963 161.195 853.796 161.195C848.629 161.195 844.441 166.627 844.441 173.328C844.441 180.029 848.629 185.461 853.796 185.461Z" fill="#3F3D56"/>
<path opacity="0.1" d="M888.817 71.8438C890.099 70.2341 891.264 68.5361 892.302 66.7627L867.722 62.7646L894.308 62.96C896.853 57.4602 898.239 51.5039 898.381 45.4555C898.522 39.407 897.416 33.3936 895.13 27.7831L859.46 46.1125L892.343 22.1564C889.286 16.833 885.15 12.1936 880.196 8.5298C875.241 4.86602 869.575 2.25707 863.553 0.866953C857.532 -0.523159 851.285 -0.664374 845.206 0.452184C839.126 1.56874 833.346 3.91893 828.227 7.35501C823.109 10.7911 818.764 15.2388 815.465 20.4185C812.166 25.5981 809.984 31.3978 809.057 37.453C808.13 43.5081 808.478 49.6877 810.078 55.6034C811.678 61.519 814.497 67.0428 818.356 71.8275C816.363 74.3356 814.649 77.0493 813.243 79.9215L845.164 96.3862L811.138 85.0759C808.747 92.0721 808.155 99.5488 809.417 106.829C810.679 114.108 813.754 120.961 818.364 126.767C813.164 133.315 809.928 141.181 809.028 149.465C808.128 157.749 809.599 166.116 813.274 173.61C816.949 181.105 822.678 187.424 829.808 191.845C836.937 196.266 845.179 198.61 853.591 198.61C862.002 198.61 870.244 196.266 877.373 191.845C884.503 187.424 890.232 181.105 893.907 173.61C897.582 166.116 899.053 157.749 898.153 149.465C897.253 141.181 894.017 133.315 888.817 126.767C895.032 118.942 898.411 109.274 898.411 99.3177C898.411 89.3611 895.032 79.6935 888.817 71.8682V71.8438Z" fill="white"/>
<path opacity="0.1" d="M808.77 99.293C808.754 109.252 812.134 118.925 818.364 126.742C813.163 133.291 809.928 141.156 809.027 149.44C808.127 157.724 809.599 166.091 813.273 173.586C816.948 181.08 822.678 187.399 829.807 191.82C836.937 196.241 845.178 198.586 853.59 198.586C862.001 198.586 870.243 196.241 877.372 191.82C884.502 187.399 890.232 181.08 893.906 173.586C897.581 166.091 899.052 157.724 898.152 149.44C897.252 141.156 894.017 133.291 888.816 126.742C894.825 119.186 808.77 94.3096 808.77 99.293Z" fill="black"/>
</g>
<g opacity="0.1">
<path opacity="0.1" d="M763.482 273.102C767.346 273.102 770.478 269.044 770.478 264.039C770.478 259.033 767.346 254.976 763.482 254.976C759.619 254.976 756.487 259.033 756.487 264.039C756.487 269.044 759.619 273.102 763.482 273.102Z" fill="#3F3D56"/>
<path opacity="0.1" d="M757.958 225.255C756.986 223.57 756.483 221.658 756.503 219.718C756.503 214.71 759.635 210.646 763.491 210.646C767.346 210.646 770.487 214.718 770.487 219.718C770.508 221.66 770.002 223.572 769.023 225.255C769.983 226.947 770.486 228.855 770.486 230.796C770.486 232.737 769.983 234.645 769.023 236.337C769.983 238.029 770.486 239.937 770.486 241.878C770.486 243.819 769.983 245.727 769.023 247.419C770.002 249.102 770.508 251.014 770.487 252.957C770.487 257.964 767.354 262.028 763.491 262.028C759.627 262.028 756.503 257.956 756.503 252.957C756.483 251.016 756.986 249.105 757.958 247.419C757.006 245.725 756.507 243.817 756.507 241.878C756.507 239.939 757.006 238.032 757.958 236.337C757.006 234.642 756.507 232.735 756.507 230.796C756.507 228.857 757.006 226.949 757.958 225.255Z" fill="#3F3D56"/>
<path opacity="0.1" d="M763.482 217.698C767.346 217.698 770.478 213.641 770.478 208.635C770.478 203.63 767.346 199.572 763.482 199.572C759.619 199.572 756.487 203.63 756.487 208.635C756.487 213.641 759.619 217.698 763.482 217.698Z" fill="#3F3D56"/>
<path opacity="0.1" d="M763.482 206.616C767.346 206.616 770.478 202.559 770.478 197.553C770.478 192.548 767.346 188.49 763.482 188.49C759.619 188.49 756.487 192.548 756.487 197.553C756.487 202.559 759.619 206.616 763.482 206.616Z" fill="#3F3D56"/>
<path opacity="0.1" d="M789.657 121.719C790.617 120.518 791.488 119.25 792.263 117.924L773.89 114.936L793.76 115.082C795.666 110.973 796.706 106.522 796.816 102.001C796.926 97.4805 796.104 92.9849 794.401 88.7893L767.741 102.494L792.329 84.5795C790.03 80.6287 786.933 77.1899 783.231 74.4776C779.53 71.7653 775.304 69.8378 770.818 68.8154C766.331 67.793 761.68 67.6976 757.154 68.5353C752.628 69.3729 748.326 71.1255 744.514 73.6838C740.703 76.2421 737.465 79.5511 735.002 83.4042C732.54 87.2573 730.905 91.5718 730.201 96.0785C729.497 100.585 729.739 105.187 730.91 109.597C732.082 114.007 734.159 118.131 737.011 121.711C735.524 123.587 734.242 125.615 733.189 127.761L757.029 140.032L731.651 131.588C729.865 136.816 729.424 142.403 730.367 147.843C731.31 153.283 733.608 158.404 737.052 162.742C733.161 167.634 730.738 173.512 730.062 179.704C729.385 185.896 730.482 192.151 733.227 197.755C735.972 203.358 740.253 208.083 745.582 211.389C750.911 214.694 757.071 216.447 763.359 216.447C769.647 216.447 775.807 214.694 781.136 211.389C786.465 208.083 790.747 203.358 793.491 197.755C796.236 192.151 797.333 185.896 796.656 179.704C795.98 173.512 793.557 167.634 789.666 162.742C794.31 156.895 796.835 149.671 796.835 142.231C796.835 134.79 794.31 127.566 789.666 121.719H789.657Z" fill="white"/>
<path opacity="0.1" d="M729.843 142.23C729.831 149.672 732.357 156.9 737.011 162.742C733.12 167.634 730.697 173.512 730.021 179.704C729.344 185.896 730.441 192.151 733.186 197.755C735.93 203.358 740.212 208.083 745.541 211.388C750.869 214.694 757.03 216.447 763.318 216.447C769.605 216.447 775.766 214.694 781.095 211.388C786.424 208.083 790.705 203.358 793.45 197.755C796.195 192.151 797.291 185.896 796.615 179.704C795.938 173.512 793.516 167.634 789.624 162.742C794.129 157.099 729.843 138.509 729.843 142.23Z" fill="black"/>
</g>
<g opacity="0.1">
<path opacity="0.1" d="M50.6319 274.43C55.7987 274.43 59.9872 268.998 59.9872 262.297C59.9872 255.596 55.7987 250.164 50.6319 250.164C45.4651 250.164 41.2766 255.596 41.2766 262.297C41.2766 268.998 45.4651 274.43 50.6319 274.43Z" fill="#3F3D56"/>
<path opacity="0.1" d="M58.0305 210.386C59.3357 208.129 60.011 205.569 59.9871 202.968C59.9871 196.266 55.7945 190.835 50.6318 190.835C45.4691 190.835 41.2765 196.266 41.2765 202.968C41.2502 205.568 41.9226 208.128 43.2249 210.386C41.9469 212.652 41.276 215.204 41.276 217.8C41.276 220.396 41.9469 222.948 43.2249 225.214C41.9469 227.48 41.276 230.032 41.276 232.628C41.276 235.224 41.9469 237.776 43.2249 240.042C41.92 242.299 41.2474 244.86 41.2765 247.46C41.2765 254.153 45.4609 259.593 50.6318 259.593C55.8027 259.593 60.0118 254.17 60.0118 247.476C60.038 244.875 59.3625 242.314 58.0552 240.058C59.3377 237.794 60.0113 235.241 60.0113 232.644C60.0113 230.048 59.3377 227.495 58.0552 225.23C59.3377 222.966 60.0113 220.413 60.0113 217.816C60.0113 215.22 59.3377 212.667 58.0552 210.402L58.0305 210.386Z" fill="#3F3D56"/>
<path opacity="0.1" d="M50.6319 200.289C55.7987 200.289 59.9872 194.857 59.9872 188.156C59.9872 181.455 55.7987 176.023 50.6319 176.023C45.4651 176.023 41.2766 181.455 41.2766 188.156C41.2766 194.857 45.4651 200.289 50.6319 200.289Z" fill="#3F3D56"/>
<path opacity="0.1" d="M50.6319 185.461C55.7987 185.461 59.9872 180.029 59.9872 173.328C59.9872 166.627 55.7987 161.195 50.6319 161.195C45.4651 161.195 41.2766 166.627 41.2766 173.328C41.2766 180.029 45.4651 185.461 50.6319 185.461Z" fill="#3F3D56"/>
<path opacity="0.1" d="M15.6194 71.8444C14.3401 70.2327 13.1754 68.5349 12.1338 66.7632L36.7222 62.7651L10.1115 63.0013C7.56621 57.5015 6.18049 51.5452 6.03914 45.4967C5.89779 39.4483 7.00377 33.4348 9.28943 27.8243L44.9677 46.1538L12.0845 22.1976C15.1493 16.8901 19.288 12.2669 24.2411 8.61779C29.1942 4.96868 34.8549 2.37235 40.8683 0.99156C46.8818 -0.389235 53.1184 -0.524734 59.1873 0.593564C65.2561 1.71186 71.0263 4.05984 76.1361 7.49033C81.2459 10.9208 85.5853 15.3598 88.8821 20.5292C92.179 25.6985 94.3622 31.4866 95.295 37.5308C96.2278 43.575 95.8901 49.7448 94.3029 55.6537C92.7158 61.5625 89.9135 67.0829 86.0717 71.8688C88.0649 74.3769 89.7792 77.0906 91.1851 79.9627L59.2555 96.3868L93.2896 85.0764C95.6754 92.0739 96.2634 99.55 95.0003 106.829C93.7372 114.108 90.6629 120.961 86.0553 126.768C91.256 133.316 94.4914 141.182 95.3916 149.465C96.2918 157.749 94.8204 166.117 91.1457 173.611C87.471 181.106 81.7413 187.425 74.6118 191.845C67.4822 196.266 59.2406 198.611 50.8291 198.611C42.4177 198.611 34.1761 196.266 27.0465 191.845C19.917 187.425 14.1873 181.106 10.5126 173.611C6.83792 166.117 5.36655 157.749 6.26673 149.465C7.16691 141.182 10.4023 133.316 15.603 126.768C9.38783 118.942 6.00879 109.275 6.00879 99.3182C6.00879 89.3616 9.38783 79.6941 15.603 71.8688L15.6194 71.8444Z" fill="white"/>
<path opacity="0.1" d="M95.6489 99.294C95.6651 109.253 92.2845 118.926 86.0553 126.743C91.2559 133.292 94.4914 141.157 95.3915 149.441C96.2917 157.725 94.8204 166.092 91.1457 173.587C87.471 181.081 81.7413 187.4 74.6117 191.821C67.4822 196.242 59.2405 198.587 50.8291 198.587C42.4177 198.587 34.1761 196.242 27.0465 191.821C19.917 187.4 14.1873 181.081 10.5126 173.587C6.83789 166.092 5.36652 157.725 6.2667 149.441C7.16689 141.157 10.4023 133.292 15.603 126.743C9.59358 119.187 95.6489 94.3106 95.6489 99.294Z" fill="black"/>
</g>
<g opacity="0.1">
<path opacity="0.1" d="M140.937 273.102C144.801 273.102 147.933 269.044 147.933 264.039C147.933 259.033 144.801 254.976 140.937 254.976C137.074 254.976 133.941 259.033 133.941 264.039C133.941 269.044 137.074 273.102 140.937 273.102Z" fill="#3F3D56"/>
<path opacity="0.1" d="M146.47 225.255C147.442 223.57 147.945 221.658 147.925 219.718C147.925 214.71 144.801 210.646 140.937 210.646C137.073 210.646 133.941 214.718 133.941 219.718C133.924 221.659 134.429 223.57 135.405 225.255C134.445 226.947 133.942 228.855 133.942 230.796C133.942 232.737 134.445 234.645 135.405 236.337C134.445 238.029 133.942 239.937 133.942 241.878C133.942 243.819 134.445 245.727 135.405 247.419C134.429 249.104 133.924 251.015 133.941 252.957C133.941 257.964 137.073 262.028 140.937 262.028C144.801 262.028 147.925 257.956 147.925 252.957C147.945 251.016 147.442 249.105 146.47 247.419C147.421 245.725 147.921 243.817 147.921 241.878C147.921 239.939 147.421 238.032 146.47 236.337C147.421 234.642 147.921 232.735 147.921 230.796C147.921 228.857 147.421 226.949 146.47 225.255Z" fill="#3F3D56"/>
<path opacity="0.1" d="M140.937 217.698C144.801 217.698 147.933 213.641 147.933 208.635C147.933 203.63 144.801 199.572 140.937 199.572C137.074 199.572 133.941 203.63 133.941 208.635C133.941 213.641 137.074 217.698 140.937 217.698Z" fill="#3F3D56"/>
<path opacity="0.1" d="M140.937 206.616C144.801 206.616 147.933 202.559 147.933 197.553C147.933 192.548 144.801 188.49 140.937 188.49C137.074 188.49 133.941 192.548 133.941 197.553C133.941 202.559 137.074 206.616 140.937 206.616Z" fill="#3F3D56"/>
<path opacity="0.1" d="M114.762 121.719C113.805 120.516 112.934 119.248 112.156 117.924L130.53 114.936L110.66 115.082C108.754 110.973 107.714 106.522 107.604 102.001C107.494 97.4805 108.315 92.9849 110.019 88.7893L136.679 102.494L112.091 84.5795C114.39 80.6287 117.487 77.1899 121.188 74.4776C124.889 71.7653 129.115 69.8378 133.602 68.8154C138.089 67.793 142.74 67.6976 147.266 68.5353C151.791 69.3729 156.094 71.1255 159.905 73.6838C163.717 76.2421 166.955 79.5511 169.417 83.4042C171.88 87.2573 173.514 91.5718 174.218 96.0785C174.922 100.585 174.681 105.187 173.509 109.597C172.338 114.007 170.261 118.131 167.408 121.711C168.902 123.583 170.184 125.612 171.231 127.761L147.391 140.032L172.818 131.58C174.604 136.808 175.045 142.395 174.102 147.835C173.159 153.275 170.861 158.396 167.417 162.734C171.308 167.626 173.731 173.504 174.407 179.696C175.084 185.888 173.987 192.143 171.242 197.747C168.497 203.35 164.216 208.075 158.887 211.38C153.558 214.686 147.398 216.439 141.11 216.439C134.822 216.439 128.662 214.686 123.333 211.38C118.004 208.075 113.722 203.35 110.978 197.747C108.233 192.143 107.136 185.888 107.813 179.696C108.489 173.504 110.912 167.626 114.803 162.734C110.159 156.887 107.634 149.663 107.634 142.222C107.634 134.782 110.159 127.558 114.803 121.711L114.762 121.719Z" fill="white"/>
<path opacity="0.1" d="M174.577 142.23C174.588 149.672 172.062 156.9 167.408 162.742C171.299 167.634 173.722 173.512 174.399 179.704C175.075 185.896 173.978 192.151 171.234 197.755C168.489 203.358 164.207 208.083 158.878 211.388C153.55 214.694 147.389 216.447 141.101 216.447C134.814 216.447 128.653 214.694 123.324 211.388C117.996 208.083 113.714 203.358 110.969 197.755C108.225 192.151 107.128 185.896 107.804 179.704C108.481 173.512 110.903 167.634 114.795 162.742C110.273 157.099 174.577 138.509 174.577 142.23Z" fill="black"/>
</g>
<path opacity="0.1" d="M450.5 408.761C699.304 408.761 901 405.531 901 401.547C901 397.562 699.304 394.332 450.5 394.332C201.696 394.332 0 397.562 0 401.547C0 405.531 201.696 408.761 450.5 408.761Z" fill="white"/>
<path opacity="0.1" d="M450.5 468C699.304 468 901 464.77 901 460.786C901 456.801 699.304 453.571 450.5 453.571C201.696 453.571 0 456.801 0 460.786C0 464.77 201.696 468 450.5 468Z" fill="white"/>
<path opacity="0.1" d="M450.5 285.128C699.304 285.128 901 281.898 901 277.914C901 273.929 699.304 270.699 450.5 270.699C201.696 270.699 0 273.929 0 277.914C0 281.898 201.696 285.128 450.5 285.128Z" fill="white"/>
<path opacity="0.1" d="M450.5 346.941C699.304 346.941 901 343.711 901 339.726C901 335.742 699.304 332.512 450.5 332.512C201.696 332.512 0 335.742 0 339.726C0 343.711 201.696 346.941 450.5 346.941Z" fill="white"/>
<path opacity="0.1" d="M664.89 89.872C661.955 89.3231 658.922 89.6519 656.176 90.8166C654.528 91.544 652.744 91.92 650.94 91.92C649.135 91.92 647.351 91.544 645.703 90.8166C643.753 89.9688 641.64 89.5508 639.511 89.5916C637.382 89.6324 635.287 90.1309 633.372 91.0527C632.281 91.627 631.064 91.9288 629.829 91.9322C624.83 91.9322 620.679 86.9487 619.816 80.3775C620.799 79.6512 621.636 78.7479 622.282 77.7148C625.209 73.0408 629.738 70.0361 634.835 70.0361C639.932 70.0361 644.404 73.0001 647.331 77.6252C648.202 79.0226 649.424 80.1726 650.878 80.9632C652.332 81.7537 653.967 82.1579 655.626 82.1364H655.757C659.777 82.0956 663.221 85.255 664.89 89.872Z" fill="white"/>
<path opacity="0.1" d="M680.107 69.2307L672.034 74.2955L676.967 65.4687C675.578 64.3735 673.859 63.7689 672.084 63.7506H671.952C671.401 63.758 670.851 63.7172 670.308 63.6285L667.529 65.3466L668.705 63.2295C666.762 62.5635 665.084 61.3031 663.912 59.6303L658.98 62.7083L662.071 57.1387C659.21 53.735 655.346 51.6504 651.104 51.6504C646.007 51.6504 641.478 54.6469 638.543 59.3209C637.678 60.7185 636.455 61.8644 634.998 62.6424C633.541 63.4204 631.902 63.8028 630.248 63.7506H629.977C624.354 63.7506 619.799 70.0613 619.799 77.8458C619.799 85.6304 624.354 91.9492 629.977 91.9492C631.212 91.941 632.427 91.6394 633.52 91.0697C635.434 90.1456 637.529 89.6451 639.658 89.6029C641.788 89.5607 643.901 89.9779 645.851 90.8255C647.498 91.5579 649.283 91.9366 651.088 91.9366C652.893 91.9366 654.678 91.5579 656.324 90.8255C658.259 89.9969 660.351 89.5892 662.458 89.6299C664.566 89.6706 666.64 90.1589 668.54 91.0616C669.622 91.622 670.822 91.918 672.043 91.9247C677.666 91.9247 682.22 85.6059 682.22 77.8214C682.254 74.8277 681.527 71.8736 680.107 69.2307Z" fill="white"/>
<path opacity="0.1" d="M321.647 85.4665C319.59 85.0816 317.464 85.3111 315.539 86.1261C314.387 86.6361 313.139 86.8997 311.877 86.8997C310.615 86.8997 309.367 86.6361 308.214 86.1261C306.851 85.5328 305.373 85.2408 303.883 85.2703C302.394 85.2998 300.929 85.6502 299.591 86.2971C298.829 86.6906 297.984 86.8999 297.124 86.9078C293.631 86.9078 290.72 83.4227 290.112 78.822C290.809 78.3156 291.404 77.6829 291.863 76.9573C293.91 73.7002 297.083 71.583 300.651 71.583C304.219 71.583 307.351 73.6594 309.398 76.8921C310.009 77.8707 310.866 78.6759 311.884 79.2296C312.903 79.7832 314.049 80.0663 315.21 80.0515H315.301C318.063 80.0353 320.471 82.2501 321.647 85.4665Z" fill="white"/>
<path opacity="0.1" d="M332.293 71.0297L326.645 74.58L330.073 68.3996C329.104 67.6312 327.903 67.2069 326.662 67.1944H326.563C326.172 67.2014 325.781 67.1714 325.396 67.1049L323.48 68.31L324.302 66.828C322.945 66.3602 321.771 65.4796 320.948 64.3119L317.52 66.4616L319.691 62.5693C318.779 61.4036 317.617 60.4532 316.289 59.787C314.961 59.1209 313.5 58.7557 312.012 58.7178C308.445 58.7178 305.271 60.8186 303.224 64.092C302.618 65.0707 301.76 65.8732 300.74 66.418C299.719 66.9628 298.571 67.2307 297.412 67.1944H297.223C293.285 67.1944 290.096 71.6078 290.096 77.0635C290.096 82.5192 293.285 86.9326 297.223 86.9326C298.084 86.926 298.93 86.7137 299.689 86.3138C301.028 85.6705 302.492 85.3228 303.979 85.2947C305.467 85.2665 306.942 85.5587 308.305 86.1509C309.464 86.6747 310.722 86.952 311.996 86.9652C313.25 86.963 314.491 86.7023 315.638 86.1998C316.992 85.6194 318.455 85.3336 319.93 85.3617C321.405 85.3898 322.857 85.7311 324.187 86.3626C324.948 86.7575 325.794 86.9643 326.654 86.9652C330.583 86.9652 333.773 82.5436 333.773 77.0961C333.806 74.9825 333.297 72.8951 332.293 71.0297Z" fill="white"/>
<path opacity="0.1" d="M221.625 149.315C223.679 148.931 225.802 149.16 227.724 149.975C228.878 150.485 230.127 150.749 231.391 150.749C232.654 150.749 233.904 150.485 235.057 149.975C236.421 149.382 237.898 149.09 239.387 149.118C240.876 149.146 242.341 149.494 243.681 150.138C244.44 150.538 245.287 150.751 246.147 150.756C249.641 150.756 252.551 147.263 253.151 142.662C252.455 142.158 251.863 141.525 251.408 140.798C249.353 137.541 246.18 135.432 242.62 135.432C239.061 135.432 235.92 137.5 233.865 140.741C233.255 141.718 232.4 142.523 231.383 143.076C230.366 143.63 229.222 143.914 228.061 143.9H227.971C225.201 143.916 222.784 146.123 221.625 149.315Z" fill="white"/>
<path opacity="0.1" d="M210.971 134.902L216.626 138.453L213.19 132.28C214.162 131.51 215.365 131.083 216.61 131.067H216.7C217.094 131.073 217.487 131.046 217.876 130.986L219.791 132.183L218.969 130.709C220.324 130.24 221.495 129.359 222.315 128.193L225.743 130.342L223.606 126.442C224.518 125.277 225.68 124.328 227.008 123.663C228.336 122.999 229.797 122.635 231.284 122.599C234.844 122.599 238.025 124.699 240.072 127.973C240.678 128.95 241.534 129.752 242.553 130.297C243.572 130.842 244.719 131.11 245.876 131.075H246.073C250.003 131.075 253.193 135.497 253.193 140.944C253.193 146.392 250.003 150.813 246.073 150.813C245.214 150.81 244.368 150.6 243.607 150.203C242.268 149.556 240.804 149.206 239.314 149.176C237.825 149.146 236.347 149.438 234.984 150.032C233.828 150.56 232.573 150.838 231.301 150.846C230.043 150.845 228.8 150.584 227.651 150.081C226.298 149.5 224.836 149.215 223.362 149.243C221.888 149.271 220.438 149.612 219.109 150.243C218.348 150.638 217.502 150.845 216.643 150.846C212.705 150.846 209.515 146.433 209.515 140.977C209.477 138.863 209.978 136.774 210.971 134.902Z" fill="white"/>
<path d="M546.116 399.21C548.262 395.269 545.828 390.448 543.033 386.938C540.238 383.429 536.818 379.773 536.892 375.302C536.999 368.878 543.888 365.075 549.388 361.671C553.472 359.135 557.239 356.128 560.609 352.714C562.019 351.4 563.185 349.851 564.054 348.138C565.196 345.63 565.164 342.764 565.09 339.995C564.854 330.826 564.396 321.663 563.717 312.505" stroke="#3F3D56" stroke-width="4" stroke-miterlimit="10"/>
<path d="M574.182 312.049C574.103 310.369 573.598 308.737 572.714 307.301C571.831 305.865 570.597 304.672 569.126 303.833L566.857 308.271L566.931 302.896C564.873 302.296 562.676 302.359 560.657 303.077C558.638 303.794 556.901 305.128 555.697 306.886C554.493 308.645 553.885 310.737 553.959 312.86C554.034 314.983 554.787 317.029 556.112 318.7C557.436 320.372 559.262 321.583 561.326 322.16C563.391 322.736 565.587 322.648 567.598 321.908C569.609 321.168 571.33 319.814 572.513 318.042C573.697 316.27 574.281 314.171 574.182 312.049Z" fill="white"/>
<path d="M556.129 379.895C555.111 381.855 553.469 383.427 551.458 384.37C549.446 385.312 547.177 385.572 545.002 385.108C542.827 384.645 540.866 383.484 539.424 381.805C537.982 380.127 537.138 378.024 537.024 375.823C536.948 374.435 537.173 373.047 537.682 371.752C538.427 369.863 539.733 368.242 541.427 367.103C543.122 365.963 545.125 365.36 547.172 365.371C549.22 365.383 551.216 366.009 552.897 367.167C554.579 368.325 555.866 369.96 556.59 371.858L550.268 376.955L557.223 375.327C557.231 376.914 556.856 378.48 556.129 379.895Z" fill="white"/>
<path d="M551.131 360.434C548.647 360.55 546.208 359.756 544.277 358.204C542.347 356.652 541.061 354.45 540.664 352.019C540.268 349.588 540.789 347.097 542.128 345.022C543.467 342.947 545.531 341.433 547.925 340.769L547.867 344.897L550.161 340.403C552.843 340.278 555.464 341.215 557.449 343.005C559.434 344.796 560.62 347.294 560.745 349.95C560.87 352.606 559.925 355.203 558.118 357.169C556.31 359.135 553.788 360.31 551.106 360.434H551.131Z" fill="white"/>
<path d="M575.703 344.237C574.134 344.318 572.567 344.035 571.128 343.412C569.688 342.789 568.415 341.842 567.409 340.647C566.402 339.451 565.691 338.041 565.331 336.526C564.97 335.011 564.971 333.434 565.333 331.92C565.694 330.405 566.407 328.995 567.414 327.801C568.421 326.606 569.695 325.661 571.136 325.039C572.576 324.417 574.142 324.135 575.711 324.217C577.28 324.299 578.808 324.741 580.175 325.509L578.391 330.395L582.033 326.828C583.506 328.166 584.546 329.905 585.022 331.828C585.498 333.75 585.389 335.769 584.709 337.63C584.028 339.491 582.807 341.111 581.198 342.285C579.59 343.46 577.666 344.136 575.67 344.229L575.703 344.237Z" fill="white"/>
<path opacity="0.1" d="M572.817 314.719C570.483 314.972 568.214 315.688 565.863 315.835C563.511 315.982 560.93 315.42 559.467 313.62C558.779 312.572 558.153 311.484 557.592 310.363C556.953 309.375 556.078 308.558 555.044 307.985C554.389 309.256 554.016 310.65 553.949 312.075C553.881 313.499 554.122 314.922 554.654 316.247C555.186 317.573 555.998 318.77 557.035 319.76C558.071 320.75 559.309 321.509 560.666 321.987C562.023 322.465 563.467 322.651 564.902 322.532C566.337 322.413 567.73 321.992 568.987 321.297C570.245 320.602 571.338 319.649 572.194 318.502C573.05 317.355 573.65 316.041 573.952 314.646C573.582 314.654 573.195 314.679 572.817 314.719Z" fill="black"/>
<path opacity="0.1" d="M575.703 344.237C573.958 344.319 572.221 343.952 570.662 343.172C569.103 342.392 567.774 341.225 566.805 339.786C565.836 338.346 565.259 336.683 565.132 334.957C565.004 333.232 565.329 331.503 566.076 329.938C566.879 330.475 567.568 331.161 568.107 331.958C568.711 333.099 569.381 334.206 570.113 335.272C571.691 337.104 574.388 337.715 576.829 337.593C579.271 337.471 581.63 336.778 584.063 336.575C584.401 336.575 584.738 336.526 585.083 336.518C584.579 338.64 583.391 340.541 581.699 341.934C580.006 343.327 577.901 344.136 575.703 344.237Z" fill="black"/>
<path opacity="0.1" d="M551.131 360.434C549.404 360.514 547.685 360.154 546.138 359.39C544.591 358.625 543.268 357.481 542.295 356.066C541.321 354.651 540.73 353.012 540.577 351.307C540.424 349.601 540.715 347.885 541.422 346.322C542.256 346.866 542.983 347.556 543.568 348.358C544.231 349.527 544.963 350.655 545.763 351.737C547.464 353.618 550.342 354.286 552.923 354.18C555.504 354.074 557.855 353.521 560.322 353.366C559.708 355.336 558.496 357.072 556.852 358.336C555.208 359.601 553.21 360.333 551.131 360.434Z" fill="black"/>
<path opacity="0.1" d="M556.129 379.895C555.111 381.855 553.469 383.428 551.458 384.37C549.447 385.313 547.177 385.572 545.002 385.109C542.827 384.645 540.866 383.484 539.424 381.806C537.982 380.127 537.138 378.025 537.024 375.823C536.948 374.435 537.173 373.047 537.682 371.752C538.515 372.294 539.263 372.955 539.901 373.714C540.863 374.871 541.496 376.157 542.614 377.273C544.678 379.284 548.024 380.115 550.991 380.188C552.708 380.193 554.424 380.095 556.129 379.895Z" fill="black"/>
<path d="M44.6473 340.582C46.7929 336.64 44.3596 331.82 41.5645 328.31C38.7694 324.801 35.3496 321.128 35.4235 316.674C35.5304 310.25 42.4194 306.447 47.9192 303.043C52.0034 300.507 55.7701 297.5 59.1406 294.086C60.5501 292.772 61.716 291.223 62.5851 289.51C63.7278 287.002 63.6949 284.136 63.6209 281.367C63.3798 272.198 62.9221 263.035 62.248 253.877" stroke="#3F3D56" stroke-width="4" stroke-miterlimit="10"/>
<path d="M72.7129 253.421C72.6336 251.741 72.1289 250.109 71.2454 248.673C70.3619 247.237 69.1279 246.044 67.6571 245.205L65.3882 249.643L65.4622 244.268C63.4045 243.668 61.2075 243.731 59.1883 244.449C57.1691 245.166 55.4322 246.5 54.2283 248.258C53.0244 250.017 52.4158 252.109 52.4902 254.232C52.5647 256.356 53.3184 258.401 54.6426 260.072C55.9668 261.744 57.793 262.955 59.8575 263.532C61.9221 264.108 64.1182 264.02 66.1289 263.28C68.1396 262.54 69.8609 261.186 71.0443 259.414C72.2277 257.642 72.8121 255.543 72.7129 253.421Z" fill="white"/>
<path d="M54.66 321.267C53.642 323.227 52.0002 324.799 49.9887 325.742C47.9772 326.684 45.7082 326.944 43.5328 326.48C41.3574 326.017 39.3969 324.856 37.9547 323.177C36.5125 321.499 35.6691 319.396 35.5549 317.195C35.4792 315.807 35.7034 314.419 36.2125 313.124C36.9578 311.235 38.2637 309.614 39.9581 308.475C41.6524 307.335 43.6555 306.732 45.7032 306.743C47.7509 306.755 49.7469 307.381 51.4282 308.539C53.1094 309.697 54.3967 311.332 55.1204 313.23L48.7986 318.327L55.7534 316.699C55.7614 318.286 55.3865 319.852 54.66 321.267Z" fill="white"/>
<path d="M49.6619 301.805C47.1784 301.921 44.7387 301.127 42.8083 299.575C40.8778 298.023 39.5918 295.821 39.1954 293.39C38.799 290.959 39.3201 288.468 40.6592 286.393C41.9983 284.318 44.0617 282.804 46.4558 282.14L46.3983 286.268L48.6919 281.774C50.0198 281.712 51.3469 281.91 52.5974 282.357C53.848 282.803 54.9975 283.489 55.9803 284.376C56.9631 285.263 57.7601 286.332 58.3256 287.524C58.8911 288.715 59.2141 290.006 59.2762 291.321C59.3382 292.636 59.1382 293.951 58.6874 295.189C58.2366 296.428 57.5438 297.567 56.6488 298.54C55.7537 299.514 54.6739 300.303 53.4708 300.863C52.2678 301.423 50.9651 301.743 49.6373 301.805H49.6619Z" fill="white"/>
<path d="M74.2339 285.61C72.6648 285.69 71.0985 285.407 69.6588 284.784C68.2192 284.161 66.9458 283.214 65.9396 282.019C64.9334 280.824 64.2219 279.413 63.8616 277.898C63.5012 276.383 63.5019 274.806 63.8635 273.292C64.2251 271.777 64.9378 270.367 65.945 269.173C66.9523 267.978 68.2264 267.033 69.6666 266.411C71.1068 265.789 72.6733 265.507 74.2423 265.589C75.8113 265.671 77.3395 266.113 78.706 266.881L76.9221 271.767L80.5639 268.2C82.0368 269.538 83.077 271.277 83.5532 273.2C84.0295 275.122 83.9205 277.141 83.2399 279.002C82.5594 280.863 81.3379 282.483 79.7293 283.657C78.1207 284.832 76.1971 285.508 74.201 285.601L74.2339 285.61Z" fill="white"/>
<path opacity="0.1" d="M71.3483 256.092C69.0136 256.344 66.7447 257.061 64.3935 257.207C62.0424 257.354 59.4611 256.792 57.9978 254.992C57.3095 253.944 56.6837 252.856 56.1234 251.735C55.4843 250.747 54.609 249.93 53.575 249.357C52.9203 250.628 52.5468 252.022 52.4796 253.447C52.4123 254.871 52.6528 256.294 53.185 257.619C53.7172 258.945 54.5288 260.142 55.5656 261.132C56.6024 262.122 57.8405 262.881 59.1973 263.359C60.554 263.837 61.9981 264.023 63.433 263.904C64.868 263.785 66.2608 263.364 67.5184 262.669C68.7759 261.974 69.8693 261.021 70.7254 259.874C71.5815 258.727 72.1807 257.413 72.4828 256.018C72.1129 256.026 71.7265 256.051 71.3483 256.092Z" fill="black"/>
<path opacity="0.1" d="M74.2339 285.609C72.489 285.691 70.7524 285.324 69.1932 284.544C67.6339 283.764 66.305 282.598 65.3359 281.158C64.3667 279.718 63.7902 278.055 63.6626 276.329C63.5349 274.604 63.8604 272.875 64.6073 271.311C65.4096 271.847 66.0992 272.533 66.6379 273.33C67.2425 274.471 67.9122 275.578 68.6438 276.644C70.2221 278.476 72.9186 279.087 75.3601 278.965C77.8017 278.843 80.1611 278.15 82.5945 277.947C82.9315 277.947 83.2686 277.898 83.6138 277.89C83.1103 280.012 81.9222 281.913 80.2296 283.306C78.537 284.699 76.4321 285.508 74.2339 285.609Z" fill="black"/>
<path opacity="0.1" d="M49.6618 301.805C47.9349 301.885 46.2161 301.526 44.6693 300.761C43.1224 299.996 41.7991 298.852 40.8256 297.437C39.852 296.022 39.2607 294.383 39.1079 292.678C38.9552 290.972 39.2461 289.256 39.953 287.693C40.7871 288.237 41.5142 288.927 42.0986 289.729C42.7615 290.898 43.4945 292.026 44.2936 293.108C45.9953 294.989 48.8726 295.657 51.4539 295.551C54.0353 295.445 56.3864 294.892 58.8526 294.737C58.2389 296.707 57.0275 298.443 55.3831 299.707C53.7387 300.972 51.7411 301.704 49.6618 301.805Z" fill="black"/>
<path opacity="0.1" d="M54.66 321.267C53.642 323.227 52.0002 324.8 49.9887 325.742C47.9772 326.685 45.7082 326.944 43.5328 326.481C41.3574 326.017 39.3969 324.856 37.9547 323.178C36.5125 321.499 35.6691 319.397 35.5549 317.195C35.4792 315.807 35.7034 314.419 36.2125 313.124C37.0461 313.666 37.7941 314.327 38.4321 315.086C39.394 316.243 40.027 317.529 41.145 318.645C43.2084 320.656 46.5543 321.487 49.522 321.56C51.2391 321.565 52.9549 321.467 54.66 321.267Z" fill="black"/>
<path d="M378.584 273.509C376.439 269.576 378.872 264.755 381.675 261.246C384.479 257.736 387.882 254.08 387.808 249.61C387.709 243.177 380.82 239.382 375.313 235.978C371.23 233.443 367.466 230.436 364.099 227.021C362.683 225.714 361.514 224.167 360.647 222.453C359.512 219.937 359.545 217.079 359.611 214.31C359.857 205.142 360.315 195.978 360.984 186.82" stroke="#3F3D56" stroke-width="4" stroke-miterlimit="10"/>
<path d="M350.527 186.356C350.605 184.677 351.108 183.045 351.99 181.609C352.872 180.173 354.105 178.98 355.574 178.14L357.843 182.578L357.778 177.204C358.858 176.893 359.983 176.758 361.107 176.805C363.106 176.897 365.033 177.575 366.643 178.751C368.254 179.928 369.476 181.551 370.155 183.416C370.834 185.281 370.94 187.303 370.459 189.227C369.978 191.151 368.932 192.891 367.453 194.226C365.974 195.562 364.128 196.433 362.149 196.729C360.17 197.025 358.147 196.734 356.336 195.892C354.524 195.049 353.005 193.694 351.971 191.997C350.937 190.299 350.435 188.337 350.527 186.356Z" fill="white"/>
<path d="M368.571 254.202C369.632 256.248 371.371 257.87 373.496 258.797C375.621 259.723 378.003 259.898 380.243 259.291C382.483 258.684 384.444 257.333 385.797 255.464C387.15 253.595 387.813 251.322 387.675 249.027C387.537 246.731 386.606 244.552 385.039 242.855C383.471 241.159 381.363 240.048 379.066 239.708C376.77 239.369 374.425 239.822 372.426 240.992C370.427 242.162 368.895 243.977 368.086 246.133L374.408 251.23L367.453 249.602C367.448 251.202 367.831 252.78 368.571 254.202Z" fill="white"/>
<path d="M373.57 234.741C376.054 234.859 378.496 234.067 380.428 232.516C382.36 230.964 383.648 228.763 384.046 226.331C384.443 223.898 383.923 221.407 382.583 219.331C381.244 217.255 379.179 215.74 376.784 215.076L376.834 219.204L374.54 214.709C371.859 214.579 369.236 215.508 367.247 217.293C365.258 219.079 364.067 221.573 363.935 224.228C363.877 225.385 364.025 226.542 364.371 227.648C364.978 229.626 366.188 231.37 367.835 232.64C369.482 233.91 371.485 234.643 373.57 234.741Z" fill="white"/>
<path d="M349.006 218.529C350.575 218.608 352.141 218.324 353.58 217.7C355.019 217.076 356.291 216.129 357.296 214.933C358.302 213.738 359.012 212.327 359.372 210.812C359.731 209.297 359.73 207.721 359.368 206.207C359.006 204.693 358.293 203.283 357.285 202.089C356.278 200.895 355.004 199.95 353.563 199.329C352.123 198.707 350.557 198.426 348.988 198.508C347.42 198.59 345.892 199.032 344.526 199.8L346.318 204.686L342.635 201.193C341.653 202.074 340.856 203.14 340.292 204.328C339.727 205.516 339.406 206.803 339.347 208.114C339.298 209.042 339.383 209.971 339.601 210.875C340.117 212.989 341.314 214.879 343.011 216.26C344.707 217.641 346.812 218.438 349.006 218.529Z" fill="white"/>
<path opacity="0.1" d="M351.892 189.027C354.226 189.28 356.495 189.996 358.838 190.143C361.181 190.289 363.771 189.727 365.242 187.928C365.928 186.879 366.551 185.791 367.108 184.671C367.75 183.682 368.629 182.866 369.665 182.293C370.321 183.564 370.695 184.959 370.763 186.384C370.831 187.81 370.591 189.233 370.058 190.56C369.526 191.886 368.714 193.084 367.676 194.074C366.639 195.065 365.4 195.824 364.042 196.302C362.684 196.78 361.239 196.965 359.803 196.845C358.368 196.725 356.974 196.302 355.717 195.606C354.459 194.909 353.366 193.955 352.51 192.806C351.655 191.658 351.057 190.342 350.757 188.946C351.127 188.954 351.505 188.986 351.892 189.027Z" fill="black"/>
<path opacity="0.1" d="M349.006 218.528C350.75 218.608 352.485 218.239 354.043 217.459C355.601 216.678 356.929 215.512 357.898 214.073C358.866 212.634 359.443 210.972 359.572 209.247C359.7 207.522 359.377 205.794 358.632 204.229C357.828 204.766 357.135 205.452 356.594 206.249C355.989 207.39 355.319 208.497 354.588 209.563C353.018 211.395 350.321 212.006 347.88 211.884C345.438 211.762 343.079 211.069 340.645 210.866C340.308 210.866 339.963 210.817 339.626 210.809C340.128 212.931 341.316 214.834 343.009 216.227C344.702 217.62 346.807 218.428 349.006 218.528Z" fill="black"/>
<path opacity="0.1" d="M373.57 234.741C375.297 234.824 377.017 234.466 378.566 233.702C380.114 232.938 381.438 231.793 382.412 230.378C383.386 228.962 383.977 227.322 384.129 225.616C384.281 223.909 383.988 222.192 383.279 220.63C382.445 221.172 381.721 221.862 381.141 222.666C380.478 223.834 379.745 224.963 378.946 226.045C377.236 227.926 374.367 228.594 371.778 228.488C369.188 228.382 366.845 227.828 364.379 227.673C364.99 229.646 366.2 231.383 367.845 232.648C369.49 233.913 371.489 234.644 373.57 234.741Z" fill="black"/>
<path opacity="0.1" d="M368.572 254.202C369.759 256.471 371.777 258.204 374.212 259.048C376.647 259.892 379.316 259.783 381.672 258.743C384.029 257.703 385.896 255.811 386.891 253.454C387.886 251.096 387.935 248.451 387.027 246.06C386.19 246.597 385.441 247.259 384.808 248.022C383.846 249.178 383.163 250.465 382.095 251.58C380.023 253.592 376.685 254.422 373.71 254.496C371.993 254.496 370.277 254.399 368.572 254.202Z" fill="black"/>
<path d="M641.001 275.341C686.385 275.341 723.176 238.899 723.176 193.945C723.176 148.992 686.385 112.55 641.001 112.55C595.616 112.55 558.825 148.992 558.825 193.945C558.825 238.899 595.616 275.341 641.001 275.341Z" fill="#F2F2F2"/>
<path d="M676.276 214.938C673.415 212.104 666.535 207.829 663.123 206.233C659.185 204.36 657.738 204.393 654.951 206.388C652.633 208.016 651.129 209.588 648.465 209.01C645.802 208.432 640.524 204.491 635.419 199.45C630.314 194.41 626.351 189.215 625.784 186.536C625.217 183.857 626.779 182.399 628.439 180.103C630.445 177.343 630.503 175.909 628.596 172.009C626.951 168.63 622.685 161.83 619.799 158.98C616.914 156.13 616.289 156.757 614.711 157.352C613.086 158.026 611.526 158.844 610.049 159.795C607.189 161.692 605.586 163.272 604.459 165.649C603.333 168.027 602.059 172.441 608.611 183.995C613.444 192.834 619.566 200.92 626.779 207.992C633.943 215.153 642.134 221.228 651.088 226.02C662.745 232.534 667.209 231.24 669.609 230.132C672.01 229.025 673.604 227.453 675.512 224.595C676.473 223.134 677.299 221.588 677.978 219.978C678.521 218.415 679.162 217.78 676.276 214.938Z" fill="#303030"/>
<path opacity="0.1" d="M641.001 112.558C624.738 112.55 608.838 117.319 595.313 126.264C581.787 135.208 571.244 147.925 565.017 162.806C558.79 177.686 557.158 194.062 560.329 209.862C563.5 225.661 571.33 240.174 582.83 251.564C594.329 262.955 608.981 270.711 624.932 273.851C640.882 276.992 657.415 275.376 672.438 269.208C687.461 263.04 700.3 252.596 709.33 239.199C718.36 225.802 723.176 210.053 723.168 193.945C723.157 172.363 714.496 151.668 699.089 136.407C683.682 121.147 662.789 112.568 641.001 112.558ZM641.001 264.519C626.909 264.519 613.133 260.38 601.416 252.625C589.699 244.87 580.567 233.848 575.174 220.952C569.782 208.057 568.371 193.867 571.12 180.177C573.869 166.487 580.655 153.912 590.619 144.042C600.584 134.172 613.279 127.45 627.1 124.727C640.922 122.004 655.247 123.402 668.267 128.743C681.286 134.085 692.414 143.131 700.243 154.736C708.072 166.342 712.25 179.987 712.25 193.945C712.25 203.213 710.407 212.39 706.827 220.952C703.246 229.515 697.998 237.295 691.382 243.848C684.766 250.402 676.911 255.6 668.267 259.147C659.622 262.693 650.357 264.519 641.001 264.519Z" fill="black"/>
<path d="M452.21 398.974C497.594 398.974 534.385 362.532 534.385 317.578C534.385 272.625 497.594 236.183 452.21 236.183C406.826 236.183 370.035 272.625 370.035 317.578C370.035 362.532 406.826 398.974 452.21 398.974Z" fill="#F2F2F2"/>
<path d="M498.945 292.986L474.34 317.781C474.297 317.822 474.263 317.871 474.239 317.926C474.216 317.981 474.204 318.039 474.204 318.099C474.204 318.158 474.216 318.217 474.239 318.271C474.263 318.326 474.297 318.375 474.34 318.416L491.604 336.599C492.017 337.011 492.298 337.535 492.412 338.105C492.525 338.675 492.466 339.265 492.242 339.802C492.018 340.338 491.639 340.797 491.153 341.121C490.666 341.446 490.094 341.62 489.508 341.623C488.719 341.622 487.963 341.311 487.403 340.76L470.23 322.642C470.142 322.557 470.024 322.509 469.901 322.509C469.778 322.509 469.66 322.557 469.572 322.642L465.388 326.828C463.675 328.563 461.629 329.942 459.37 330.883C457.111 331.824 454.685 332.309 452.235 332.308C449.738 332.296 447.268 331.792 444.97 330.825C442.672 329.857 440.592 328.446 438.851 326.673L434.831 322.602C434.744 322.516 434.625 322.468 434.502 322.468C434.379 322.468 434.261 322.516 434.174 322.602L417.041 340.679C416.766 340.952 416.438 341.169 416.078 341.317C415.718 341.465 415.331 341.542 414.941 341.542C414.551 341.542 414.164 341.465 413.804 341.317C413.444 341.169 413.116 340.952 412.841 340.679C412.563 340.406 412.343 340.082 412.193 339.725C412.043 339.368 411.966 338.985 411.966 338.598C411.966 338.211 412.043 337.828 412.193 337.471C412.343 337.114 412.563 336.79 412.841 336.518L430.039 318.376C430.115 318.287 430.157 318.174 430.157 318.058C430.157 317.942 430.115 317.829 430.039 317.74L405.434 292.946C405.37 292.883 405.29 292.84 405.202 292.822C405.114 292.805 405.023 292.814 404.94 292.848C404.857 292.882 404.786 292.939 404.737 293.013C404.687 293.087 404.661 293.174 404.661 293.263V342.877C404.667 344.795 405.439 346.633 406.809 347.989C408.178 349.345 410.033 350.11 411.969 350.116H492.426C494.363 350.11 496.218 349.345 497.587 347.989C498.956 346.633 499.728 344.795 499.735 342.877V293.304C499.739 293.211 499.714 293.12 499.663 293.042C499.613 292.965 499.539 292.904 499.453 292.869C499.367 292.835 499.271 292.827 499.18 292.848C499.09 292.869 499.007 292.917 498.945 292.986Z" fill="#303030"/>
<path d="M452.21 326.421C453.878 326.437 455.532 326.121 457.074 325.491C458.616 324.862 460.015 323.932 461.187 322.756L497.022 286.627C495.749 285.583 494.152 285.007 492.5 284.998H411.986C410.333 285.003 408.734 285.579 407.464 286.627L443.307 322.756C444.469 323.925 445.855 324.851 447.384 325.481C448.913 326.11 450.554 326.43 452.21 326.421Z" fill="#303030"/>
<path opacity="0.1" d="M451.174 236.19C434.911 236.182 419.012 240.952 405.486 249.897C391.961 258.841 381.418 271.558 375.191 286.439C368.963 301.319 367.332 317.695 370.503 333.494C373.673 349.294 381.504 363.807 393.003 375.197C404.503 386.587 419.155 394.343 435.105 397.484C451.056 400.625 467.589 399.009 482.612 392.841C497.635 386.672 510.474 376.229 519.504 362.832C528.534 349.435 533.349 333.686 533.341 317.578C533.33 295.996 524.67 275.301 509.263 260.04C493.856 244.779 472.963 236.201 451.174 236.19ZM451.174 388.152C437.082 388.152 423.307 384.013 411.59 376.258C399.873 368.503 390.741 357.481 385.348 344.585C379.955 331.69 378.544 317.5 381.294 303.81C384.043 290.12 390.829 277.545 400.793 267.675C410.757 257.805 423.453 251.083 437.274 248.36C451.095 245.637 465.421 247.035 478.44 252.376C491.459 257.718 502.587 266.763 510.416 278.369C518.245 289.975 522.424 303.62 522.424 317.578C522.424 336.295 514.917 354.246 501.555 367.481C488.193 380.716 470.071 388.152 451.174 388.152Z" fill="black"/>
<path d="M257.188 338.188C302.572 338.188 339.363 301.746 339.363 256.792C339.363 211.839 302.572 175.396 257.188 175.396C211.804 175.396 175.013 211.839 175.013 256.792C175.013 301.746 211.804 338.188 257.188 338.188Z" fill="#F2F2F2"/>
<path d="M257.188 217.845L224.428 292.71L227.486 295.739L257.196 282.759L286.906 295.739L289.964 292.71L257.188 217.845Z" fill="#303030"/>
<path opacity="0.1" d="M257.188 175.372C240.927 175.364 225.029 180.133 211.504 189.075C197.98 198.018 187.437 210.732 181.208 225.611C174.98 240.489 173.346 256.863 176.513 272.661C179.681 288.459 187.507 302.972 199.002 314.364C210.498 325.756 225.146 333.515 241.094 336.661C257.042 339.806 273.573 338.196 288.597 332.034C303.621 325.872 316.462 315.435 325.497 302.043C334.532 288.652 339.355 272.907 339.355 256.8C339.355 235.211 330.699 214.506 315.291 199.236C299.883 183.967 278.984 175.383 257.188 175.372ZM257.188 327.333C243.094 327.333 229.317 323.193 217.599 315.437C205.882 307.68 196.749 296.656 191.358 283.757C185.966 270.859 184.558 256.667 187.31 242.976C190.063 229.285 196.853 216.71 206.821 206.842C216.79 196.974 229.489 190.255 243.313 187.537C257.137 184.818 271.464 186.222 284.482 191.57C297.501 196.917 308.626 205.969 316.45 217.58C324.274 229.192 328.446 242.84 328.438 256.8C328.435 275.516 320.928 293.465 307.566 306.698C294.204 319.932 276.083 327.366 257.188 327.366V327.333Z" fill="black"/>
<path d="M687.58 337.413C689.725 333.48 687.292 328.652 684.489 325.142C681.685 321.633 678.282 317.985 678.356 313.506C678.455 307.081 685.344 303.287 690.852 299.875C694.935 297.34 698.699 294.333 702.065 290.918C703.479 289.609 704.648 288.062 705.518 286.35C706.652 283.834 706.619 280.975 706.553 278.207C706.312 269.033 705.855 259.869 705.18 250.717" stroke="#3F3D56" stroke-width="4" stroke-miterlimit="10"/>
<path d="M715.637 250.228C715.559 248.55 715.055 246.919 714.173 245.485C713.291 244.05 712.059 242.859 710.59 242.02L708.321 246.458L708.386 241.084C707.307 240.765 706.182 240.63 705.057 240.685C703.058 240.777 701.131 241.455 699.52 242.632C697.909 243.809 696.687 245.433 696.009 247.298C695.33 249.163 695.224 251.186 695.706 253.11C696.188 255.034 697.235 256.774 698.715 258.109C700.195 259.444 702.041 260.314 704.02 260.61C706 260.905 708.023 260.612 709.834 259.769C711.646 258.925 713.164 257.569 714.197 255.87C715.23 254.172 715.731 252.209 715.637 250.228Z" fill="white"/>
<path d="M697.593 318.083C696.531 320.128 694.792 321.749 692.667 322.675C690.542 323.601 688.16 323.775 685.921 323.168C683.682 322.561 681.722 321.209 680.369 319.341C679.016 317.472 678.353 315.2 678.491 312.904C678.629 310.609 679.559 308.43 681.126 306.734C682.693 305.037 684.801 303.926 687.097 303.586C689.393 303.246 691.737 303.698 693.736 304.867C695.736 306.036 697.268 307.85 698.078 310.005L691.756 315.102L698.711 313.474C698.718 315.077 698.334 316.658 697.593 318.083Z" fill="white"/>
<path d="M692.594 298.613C690.11 298.731 687.669 297.939 685.736 296.388C683.804 294.836 682.516 292.635 682.119 290.203C681.721 287.771 682.242 285.279 683.581 283.203C684.921 281.127 686.985 279.612 689.38 278.948L689.331 283.076L691.624 278.59C694.306 278.468 696.926 279.406 698.91 281.197C700.894 282.988 702.079 285.485 702.205 288.141C702.268 289.456 702.068 290.77 701.618 292.009C701.168 293.248 700.475 294.386 699.581 295.359C698.686 296.333 697.606 297.122 696.403 297.681C695.2 298.241 693.897 298.56 692.57 298.621L692.594 298.613Z" fill="white"/>
<path d="M717.158 282.425C715.589 282.504 714.024 282.221 712.585 281.597C711.146 280.973 709.873 280.025 708.868 278.83C707.862 277.634 707.152 276.223 706.792 274.709C706.433 273.194 706.434 271.617 706.796 270.103C707.159 268.589 707.872 267.18 708.879 265.986C709.887 264.792 711.161 263.847 712.601 263.225C714.041 262.604 715.607 262.323 717.176 262.405C718.744 262.486 720.272 262.929 721.639 263.697L719.846 268.582L723.529 265.081C724.511 265.963 725.306 267.029 725.871 268.217C726.435 269.405 726.757 270.691 726.818 272.002C726.867 272.93 726.781 273.86 726.563 274.763C726.047 276.878 724.851 278.77 723.154 280.152C721.458 281.534 719.353 282.332 717.158 282.425Z" fill="white"/>
<path opacity="0.1" d="M714.281 252.899C711.946 253.16 709.669 253.876 707.326 254.023C704.983 254.169 702.394 253.608 700.922 251.8C700.234 250.752 699.611 249.665 699.056 248.543C698.414 247.557 697.54 246.74 696.507 246.165C695.851 247.436 695.477 248.831 695.409 250.256C695.341 251.682 695.582 253.105 696.114 254.432C696.646 255.758 697.458 256.956 698.496 257.946C699.534 258.937 700.773 259.696 702.13 260.174C703.488 260.652 704.933 260.837 706.369 260.717C707.805 260.597 709.198 260.174 710.456 259.478C711.714 258.781 712.807 257.827 713.662 256.678C714.517 255.53 715.115 254.214 715.415 252.818C715.037 252.834 714.659 252.858 714.281 252.899Z" fill="black"/>
<path opacity="0.1" d="M717.158 282.426C715.414 282.505 713.679 282.137 712.121 281.356C710.563 280.575 709.235 279.409 708.267 277.97C707.298 276.531 706.721 274.869 706.593 273.144C706.464 271.42 706.787 269.691 707.532 268.127C708.336 268.661 709.029 269.344 709.571 270.138C710.171 271.282 710.841 272.388 711.576 273.452C713.147 275.293 715.843 275.895 718.285 275.781C720.726 275.667 723.085 274.967 725.519 274.763C725.856 274.763 726.201 274.706 726.538 274.698C726.036 276.822 724.849 278.725 723.156 280.119C721.463 281.514 719.358 282.324 717.158 282.426Z" fill="black"/>
<path opacity="0.1" d="M692.595 298.613C690.865 298.697 689.142 298.339 687.592 297.575C686.042 296.81 684.716 295.663 683.742 294.245C682.767 292.827 682.177 291.185 682.027 289.476C681.877 287.767 682.173 286.049 682.886 284.485C683.715 285.032 684.439 285.722 685.023 286.521C685.845 287.62 686.297 288.891 687.218 289.9C688.928 291.789 691.797 292.449 694.387 292.392C696.976 292.335 699.319 291.724 701.785 291.537C701.175 293.51 699.965 295.249 698.32 296.515C696.675 297.782 694.676 298.514 692.595 298.613Z" fill="black"/>
<path opacity="0.1" d="M697.593 318.082C696.386 320.319 694.368 322.02 691.947 322.842C689.525 323.665 686.878 323.549 684.539 322.517C682.201 321.485 680.343 319.614 679.341 317.281C678.339 314.947 678.266 312.324 679.137 309.939C679.972 310.479 680.721 311.141 681.357 311.902C682.327 313.066 682.96 314.345 684.069 315.468C686.141 317.48 689.479 318.302 692.455 318.384C694.172 318.382 695.887 318.281 697.593 318.082Z" fill="black"/>
<path d="M818.291 461.185C820.436 457.252 818.003 452.423 815.2 448.914C812.396 445.404 808.993 441.756 809.067 437.277C809.166 430.853 816.054 427.058 821.562 423.646C825.646 421.112 829.41 418.105 832.776 414.689C834.19 413.381 835.359 411.834 836.228 410.121C837.363 407.605 837.33 404.747 837.264 401.978C837.028 392.804 836.571 383.641 835.891 374.488" stroke="#3F3D56" stroke-width="4" stroke-miterlimit="10"/>
<path d="M846.348 373.999C846.27 372.321 845.766 370.69 844.884 369.255C844.002 367.821 842.77 366.63 841.3 365.791L839.032 370.229L839.097 364.855C838.031 364.54 836.92 364.405 835.809 364.456C833.81 364.548 831.883 365.226 830.272 366.403C828.661 367.58 827.439 369.204 826.76 371.069C826.082 372.934 825.976 374.957 826.458 376.881C826.94 378.805 827.987 380.545 829.467 381.88C830.947 383.215 832.793 384.085 834.772 384.38C836.752 384.676 838.775 384.383 840.586 383.54C842.398 382.696 843.916 381.339 844.949 379.641C845.982 377.943 846.483 375.979 846.389 373.999H846.348Z" fill="white"/>
<path d="M828.303 441.853C827.242 443.898 825.503 445.52 823.378 446.445C821.253 447.371 818.871 447.545 816.632 446.938C814.393 446.331 812.432 444.98 811.08 443.111C809.727 441.243 809.064 438.97 809.201 436.675C809.339 434.379 810.27 432.201 811.837 430.504C813.404 428.807 815.512 427.696 817.808 427.356C820.104 427.016 822.448 427.469 824.447 428.638C826.446 429.806 827.979 431.62 828.788 433.776L822.467 438.873L829.421 437.244C829.428 438.847 829.045 440.428 828.303 441.853Z" fill="white"/>
<path d="M823.305 422.384C820.821 422.503 818.379 421.711 816.447 420.159C814.515 418.608 813.227 416.406 812.829 413.974C812.432 411.542 812.952 409.05 814.292 406.974C815.631 404.898 817.696 403.384 820.091 402.719L820.042 406.848L822.335 402.361C825.017 402.239 827.637 403.177 829.621 404.968C831.605 406.759 832.79 409.257 832.915 411.913C832.978 413.228 832.779 414.542 832.329 415.781C831.878 417.019 831.186 418.158 830.291 419.131C829.396 420.104 828.317 420.893 827.114 421.453C825.911 422.013 824.608 422.332 823.28 422.392L823.305 422.384Z" fill="white"/>
<path d="M847.869 406.196C846.3 406.275 844.734 405.991 843.295 405.367C841.856 404.743 840.584 403.796 839.578 402.6C838.573 401.405 837.862 399.994 837.503 398.479C837.143 396.964 837.145 395.388 837.507 393.874C837.869 392.36 838.582 390.95 839.59 389.756C840.597 388.562 841.871 387.617 843.311 386.996C844.751 386.374 846.318 386.093 847.887 386.175C849.455 386.257 850.983 386.699 852.349 387.467L850.557 392.353L854.24 388.852C855.221 389.734 856.017 390.8 856.581 391.987C857.146 393.175 857.467 394.462 857.528 395.773C857.578 396.7 857.492 397.63 857.274 398.533C856.758 400.649 855.562 402.54 853.865 403.923C852.168 405.305 850.064 406.103 847.869 406.196Z" fill="white"/>
<path opacity="0.1" d="M844.992 376.671C842.657 376.931 840.38 377.648 838.037 377.794C835.694 377.941 833.104 377.379 831.633 375.571C830.945 374.524 830.322 373.436 829.767 372.314C829.125 371.328 828.251 370.512 827.218 369.937C826.562 371.207 826.188 372.602 826.12 374.028C826.052 375.453 826.292 376.877 826.825 378.203C827.357 379.529 828.169 380.728 829.207 381.718C830.244 382.708 831.484 383.468 832.841 383.945C834.199 384.423 835.644 384.608 837.08 384.488C838.516 384.368 839.909 383.946 841.167 383.249C842.424 382.553 843.517 381.598 844.373 380.45C845.228 379.301 845.826 377.985 846.126 376.589C845.748 376.605 845.37 376.63 844.992 376.671Z" fill="black"/>
<path opacity="0.1" d="M847.869 406.196C846.125 406.276 844.39 405.907 842.832 405.127C841.274 404.346 839.946 403.18 838.977 401.741C838.009 400.302 837.432 398.639 837.303 396.915C837.174 395.19 837.498 393.462 838.242 391.897C839.047 392.431 839.739 393.114 840.281 393.909C840.882 395.052 841.552 396.159 842.287 397.223C843.857 399.063 846.554 399.666 848.995 399.552C851.437 399.438 853.796 398.737 856.23 398.534C856.567 398.534 856.912 398.477 857.249 398.469C856.747 400.592 855.56 402.495 853.867 403.89C852.174 405.285 850.068 406.094 847.869 406.196Z" fill="black"/>
<path opacity="0.1" d="M823.305 422.384C821.575 422.467 819.853 422.11 818.303 421.345C816.753 420.58 815.427 419.434 814.452 418.016C813.478 416.598 812.887 414.955 812.737 413.247C812.588 411.538 812.883 409.819 813.596 408.256C814.426 408.803 815.15 409.492 815.734 410.292C816.556 411.391 817.008 412.661 817.929 413.671C819.639 415.56 822.508 416.22 825.097 416.163C827.687 416.106 830.03 415.495 832.496 415.308C831.886 417.281 830.676 419.019 829.031 420.286C827.386 421.552 825.386 422.285 823.305 422.384Z" fill="black"/>
</g>
<defs>
<clipPath id="clip0">
<rect width="901" height="468" fill="white"/>
</clipPath>
</defs>
</svg>
