<svg width="12" height="13" viewBox="0 0 12 13" fill="none" xmlns="http://www.w3.org/2000/svg">
<path d="M1.875 2.39844C3.01562 1.25781 4.39062 0.6875 6 0.6875C7.60938 0.6875 8.97656 1.25781 10.1016 2.39844C11.2422 3.52344 11.8125 4.89062 11.8125 6.5C11.8125 8.10938 11.2422 9.48438 10.1016 10.625C8.97656 11.75 7.60938 12.3125 6 12.3125C4.39062 12.3125 3.01562 11.75 1.875 10.625C0.75 9.48438 0.1875 8.10938 0.1875 6.5C0.1875 4.89062 0.75 3.52344 1.875 2.39844ZM2.67188 9.82812C3.59375 10.7344 4.70312 11.1875 6 11.1875C7.29688 11.1875 8.39844 10.7344 9.30469 9.82812C10.2266 8.90625 10.6875 7.79688 10.6875 6.5C10.6875 5.20312 10.2266 4.10156 9.30469 3.19531C8.39844 2.27344 7.29688 1.8125 6 1.8125C4.70312 1.8125 3.59375 2.27344 2.67188 3.19531C1.76562 4.10156 1.3125 5.20312 1.3125 6.5C1.3125 7.79688 1.76562 8.90625 2.67188 9.82812ZM8.50781 8.82031C7.86719 9.46094 7.05469 9.78125 6.07031 9.78125C5.11719 9.78125 4.32812 9.46875 3.70312 8.84375C3.09375 8.20312 2.78906 7.41406 2.78906 6.47656C2.78906 5.86719 2.92969 5.3125 3.21094 4.8125C3.49219 4.3125 3.88281 3.92188 4.38281 3.64062C4.88281 3.34375 5.44531 3.19531 6.07031 3.19531C6.99219 3.19531 7.75 3.46875 8.34375 4.01562C8.40625 4.07812 8.4375 4.14844 8.4375 4.22656C8.4375 4.27344 8.42188 4.32031 8.39062 4.36719L7.96875 5.04688C7.85938 5.21875 7.71875 5.23438 7.54688 5.09375C7.10938 4.75 6.63281 4.57812 6.11719 4.57812C5.74219 4.57812 5.41406 4.66406 5.13281 4.83594C4.85156 4.99219 4.64062 5.21875 4.5 5.51562C4.35938 5.79688 4.28906 6.10938 4.28906 6.45312C4.28906 6.98438 4.45312 7.44531 4.78125 7.83594C5.10938 8.22656 5.55469 8.42188 6.11719 8.42188C6.67969 8.42188 7.19531 8.21094 7.66406 7.78906C7.72656 7.72656 7.79688 7.70312 7.875 7.71875C7.95312 7.71875 8.02344 7.75 8.08594 7.8125L8.55469 8.44531C8.58594 8.50781 8.60156 8.57031 8.60156 8.63281C8.60156 8.69531 8.57031 8.75781 8.50781 8.82031Z" fill="#0D0D0D"/>
</svg>
