<svg width="156" height="72" viewBox="0 0 156 72" fill="none" xmlns="http://www.w3.org/2000/svg">
<rect x="21" y="5" width="113" height="33" rx="2" fill="black"/>
<path d="M33.7999 31V5.584H37.8679V21.46H37.9759L44.5279 13.324H49.0639L43.0159 20.524L49.6759 31H45.1759L40.6399 23.332L37.8679 26.5V31H33.7999ZM55.5245 31L50.8445 13.324H55.0205L57.1445 22.504C57.3365 23.344 57.4925 24.184 57.6125 25.024C57.7565 25.864 57.9125 26.716 58.0805 27.58H58.2245C58.3925 26.716 58.5605 25.864 58.7285 25.024C58.9205 24.184 59.1245 23.344 59.3405 22.504L61.6445 13.324H65.4245L67.7645 22.504C67.9805 23.344 68.1845 24.184 68.3765 25.024C68.5685 25.864 68.7605 26.716 68.9525 27.58H69.0965C69.2645 26.716 69.4205 25.864 69.5645 25.024C69.7085 24.184 69.8645 23.344 70.0325 22.504L72.1565 13.324H76.0445L71.5445 31H66.6125L64.5605 22.756C64.3685 21.916 64.1885 21.088 64.0205 20.272C63.8525 19.432 63.6725 18.544 63.4805 17.608H63.3365C63.1685 18.544 63.0005 19.432 62.8325 20.272C62.6645 21.112 62.4845 21.952 62.2925 22.792L60.2765 31H55.5245ZM83.4706 31.432C81.9106 31.432 80.6506 30.964 79.6906 30.028C78.7306 29.068 78.2506 27.808 78.2506 26.248C78.2506 25.312 78.4426 24.484 78.8266 23.764C79.2346 23.02 79.8586 22.384 80.6986 21.856C81.5626 21.328 82.6426 20.884 83.9386 20.524C85.2586 20.164 86.8306 19.888 88.6546 19.696C88.6306 19.24 88.5586 18.808 88.4386 18.4C88.3426 17.968 88.1626 17.596 87.8986 17.284C87.6586 16.948 87.3346 16.696 86.9266 16.528C86.5186 16.336 86.0146 16.24 85.4146 16.24C84.5506 16.24 83.6986 16.408 82.8586 16.744C82.0426 17.08 81.2386 17.488 80.4466 17.968L78.9346 15.196C79.9186 14.572 81.0226 14.032 82.2466 13.576C83.4706 13.12 84.7906 12.892 86.2066 12.892C88.4146 12.892 90.0586 13.552 91.1386 14.872C92.2426 16.168 92.7946 18.052 92.7946 20.524V31H89.3746L89.0866 29.056H88.9426C88.1506 29.728 87.2986 30.292 86.3866 30.748C85.4986 31.204 84.5266 31.432 83.4706 31.432ZM84.8026 28.192C85.5226 28.192 86.1706 28.024 86.7466 27.688C87.3466 27.352 87.9826 26.872 88.6546 26.248V22.288C87.4546 22.432 86.4466 22.624 85.6306 22.864C84.8146 23.104 84.1546 23.38 83.6506 23.692C83.1466 23.98 82.7866 24.316 82.5706 24.7C82.3546 25.084 82.2466 25.492 82.2466 25.924C82.2466 26.716 82.4866 27.292 82.9666 27.652C83.4466 28.012 84.0586 28.192 84.8026 28.192ZM97.7491 31V13.324H101.169L101.457 16.456H101.601C102.225 15.304 102.981 14.428 103.869 13.828C104.757 13.204 105.669 12.892 106.605 12.892C107.445 12.892 108.117 13.012 108.621 13.252L107.901 16.852C107.589 16.756 107.301 16.684 107.037 16.636C106.773 16.588 106.449 16.564 106.065 16.564C105.369 16.564 104.637 16.84 103.869 17.392C103.101 17.92 102.441 18.856 101.889 20.2V31H97.7491ZM118.207 31.432C117.007 31.432 115.879 31.228 114.823 30.82C113.791 30.412 112.891 29.812 112.123 29.02C111.355 28.228 110.755 27.256 110.323 26.104C109.891 24.952 109.675 23.644 109.675 22.18C109.675 20.716 109.915 19.408 110.395 18.256C110.875 17.104 111.523 16.132 112.339 15.34C113.155 14.548 114.091 13.948 115.147 13.54C116.227 13.108 117.355 12.892 118.531 12.892C119.683 12.892 120.667 13.084 121.483 13.468C122.323 13.852 123.067 14.32 123.715 14.872L121.699 17.572C121.219 17.164 120.739 16.852 120.259 16.636C119.803 16.396 119.299 16.276 118.747 16.276C117.307 16.276 116.143 16.816 115.255 17.896C114.367 18.952 113.923 20.38 113.923 22.18C113.923 23.956 114.355 25.384 115.219 26.464C116.107 27.52 117.247 28.048 118.639 28.048C119.335 28.048 119.983 27.904 120.583 27.616C121.207 27.304 121.771 26.944 122.275 26.536L123.967 29.272C123.127 29.992 122.203 30.532 121.195 30.892C120.211 31.252 119.215 31.432 118.207 31.432ZM58.4319 67V47.992H51.9879V43.528H70.2039V47.992H63.7599V67H58.4319ZM78.6816 67.432C77.4096 67.432 76.2216 67.228 75.1176 66.82C74.0136 66.388 73.0536 65.776 72.2376 64.984C71.4216 64.168 70.7856 63.184 70.3296 62.032C69.8736 60.88 69.6456 59.56 69.6456 58.072C69.6456 56.632 69.8856 55.336 70.3656 54.184C70.8456 53.008 71.4696 52.024 72.2376 51.232C73.0296 50.416 73.9296 49.792 74.9376 49.36C75.9456 48.928 76.9896 48.712 78.0696 48.712C79.3416 48.712 80.4456 48.928 81.3816 49.36C82.3416 49.792 83.1336 50.392 83.7576 51.16C84.4056 51.928 84.8856 52.84 85.1976 53.896C85.5096 54.928 85.6656 56.056 85.6656 57.28C85.6656 57.76 85.6416 58.216 85.5936 58.648C85.5456 59.08 85.4976 59.404 85.4496 59.62H74.7576C74.9976 60.916 75.5256 61.876 76.3416 62.5C77.1816 63.1 78.2016 63.4 79.4016 63.4C80.6736 63.4 81.9576 63.004 83.2536 62.212L85.0176 65.416C84.1056 66.04 83.0856 66.532 81.9576 66.892C80.8536 67.252 79.7616 67.432 78.6816 67.432ZM74.7216 56.128H81.1656C81.1656 55.12 80.9376 54.304 80.4816 53.68C80.0256 53.056 79.2576 52.744 78.1776 52.744C77.3376 52.744 76.5936 53.02 75.9456 53.572C75.3216 54.124 74.9136 54.976 74.7216 56.128ZM86.9239 67L92.3959 57.712L87.2479 49.144H92.9359L94.5199 52.024C94.7599 52.528 94.9999 53.044 95.2399 53.572C95.5039 54.076 95.7679 54.58 96.0319 55.084H96.1759C96.3679 54.58 96.5719 54.076 96.7879 53.572C97.0039 53.044 97.2079 52.528 97.3999 52.024L98.6239 49.144H104.096L98.9119 58.324L104.42 67H98.7319L97.0039 64.048C96.7159 63.544 96.4279 63.028 96.1399 62.5C95.8759 61.972 95.5999 61.456 95.3119 60.952H95.1679C94.9519 61.456 94.7239 61.972 94.4839 62.5C94.2439 63.004 94.0159 63.52 93.7999 64.048L92.3959 67H86.9239Z" fill="white"/>
</svg>
