<svg width="51" height="14" viewBox="0 0 51 14" fill="none" xmlns="http://www.w3.org/2000/svg">
<path d="M5.94476 10.318C5.94476 11.194 5.72876 11.89 5.29676 12.406C4.87676 12.922 4.27676 13.18 3.49676 13.18C2.72876 13.18 2.16476 12.76 1.80476 11.92V13H0.256758V0.579999H1.80476V5.584C2.15276 4.768 2.71676 4.36 3.49676 4.36C4.27676 4.36 4.87676 4.618 5.29676 5.134C5.72876 5.65 5.94476 6.34 5.94476 7.204V10.318ZM4.36076 10.93V6.592C4.36076 5.464 4.00676 4.9 3.29876 4.9C2.83076 4.9 2.46476 5.116 2.20076 5.548C1.93676 5.968 1.80476 6.448 1.80476 6.988V10.534C1.80476 11.122 1.93676 11.614 2.20076 12.01C2.46476 12.406 2.84276 12.604 3.33476 12.604C4.01876 12.604 4.36076 12.046 4.36076 10.93ZM12.8888 7.402V8.824H9.28882V10.876C9.28882 12.052 9.76882 12.64 10.7288 12.64C11.2448 12.64 11.6348 12.43 11.8988 12.01C12.1748 11.59 12.3128 11.23 12.3128 10.93H12.7088C12.7088 11.626 12.4268 12.22 11.8628 12.712C11.5028 13.024 11.0468 13.18 10.4948 13.18C9.54682 13.18 8.85082 12.898 8.40682 12.334C7.96282 11.77 7.74082 11.05 7.74082 10.174V7.348C7.74082 6.472 7.98082 5.758 8.46082 5.206C8.94082 4.642 9.61882 4.36 10.4948 4.36C11.3708 4.36 11.9888 4.648 12.3488 5.224C12.7088 5.8 12.8888 6.526 12.8888 7.402ZM11.8628 8.284V6.646C11.8628 5.482 11.4428 4.9 10.6028 4.9C9.72682 4.9 9.28882 5.482 9.28882 6.646V8.284H11.8628ZM20.2123 13H14.9563V0.579999H16.9003V12.154H20.2123V13ZM26.3185 7.402V8.824H22.7185V10.876C22.7185 12.052 23.1985 12.64 24.1585 12.64C24.6745 12.64 25.0645 12.43 25.3285 12.01C25.6045 11.59 25.7425 11.23 25.7425 10.93H26.1385C26.1385 11.626 25.8565 12.22 25.2925 12.712C24.9325 13.024 24.4765 13.18 23.9245 13.18C22.9765 13.18 22.2805 12.898 21.8365 12.334C21.3925 11.77 21.1705 11.05 21.1705 10.174V7.348C21.1705 6.472 21.4105 5.758 21.8905 5.206C22.3705 4.642 23.0485 4.36 23.9245 4.36C24.8005 4.36 25.4185 4.648 25.7785 5.224C26.1385 5.8 26.3185 6.526 26.3185 7.402ZM25.2925 8.284V6.646C25.2925 5.482 24.8725 4.9 24.0325 4.9C23.1565 4.9 22.7185 5.482 22.7185 6.646V8.284H25.2925ZM36.954 4.954V13H34.974V4.036C34.974 2.632 34.614 1.708 33.894 1.264C33.618 1.108 33.3 1.03 32.94 1.03C32.172 1.03 31.542 1.396 31.05 2.128C30.57 2.848 30.33 3.688 30.33 4.648V13H28.386V0.579999H30.33V2.65C30.582 1.942 30.954 1.39 31.446 0.993999C31.938 0.597999 32.496 0.399999 33.12 0.399999C34.188 0.399999 35.094 0.807999 35.838 1.624C36.582 2.428 36.954 3.538 36.954 4.954ZM43.712 10.804C43.712 11.248 43.574 11.728 43.298 12.244C43.154 12.52 42.932 12.748 42.632 12.928C42.344 13.096 41.996 13.18 41.588 13.18C40.76 13.18 40.112 12.904 39.644 12.352C39.176 11.8 38.942 11.074 38.942 10.174V7.366C38.942 6.454 39.176 5.728 39.644 5.188C40.124 4.636 40.766 4.36 41.57 4.36C42.014 4.36 42.392 4.462 42.704 4.666C43.016 4.858 43.238 5.104 43.37 5.404C43.598 5.908 43.712 6.346 43.712 6.718H43.244V6.574C43.244 6.106 43.058 5.674 42.686 5.278C42.458 5.026 42.164 4.9 41.804 4.9C41.444 4.9 41.138 5.05 40.886 5.35C40.634 5.65 40.508 6.088 40.508 6.664V10.876C40.508 11.416 40.628 11.848 40.868 12.172C41.108 12.484 41.45 12.64 41.894 12.64C42.35 12.64 42.686 12.448 42.902 12.064C43.13 11.668 43.244 11.302 43.244 10.966V10.804H43.712ZM50.923 10.174C50.923 11.05 50.671 11.77 50.167 12.334C49.675 12.898 48.979 13.18 48.079 13.18C47.179 13.18 46.477 12.898 45.973 12.334C45.481 11.77 45.235 11.05 45.235 10.174V7.348C45.235 6.472 45.481 5.758 45.973 5.206C46.477 4.642 47.179 4.36 48.079 4.36C48.979 4.36 49.675 4.642 50.167 5.206C50.671 5.758 50.923 6.472 50.923 7.348V10.174ZM49.357 10.876V6.646C49.357 5.482 48.925 4.9 48.061 4.9C47.209 4.9 46.783 5.482 46.783 6.646V10.876C46.783 12.052 47.209 12.64 48.061 12.64C48.925 12.64 49.357 12.052 49.357 10.876Z" fill="#542E57"/>
</svg>
