<?xml version="1.0" encoding="UTF-8" standalone="no"?><!-- Generator: Gravit.io --><svg xmlns="http://www.w3.org/2000/svg" xmlns:xlink="http://www.w3.org/1999/xlink" style="isolation:isolate" viewBox="0 0 749.3 498.2" width="749.3pt" height="498.2pt"><defs><clipPath id="_clipPath_Snv8ALvFGOkBlgIRzRS5TdvtvUH6HxKE"><rect width="749.3" height="498.2"/></clipPath></defs><g clip-path="url(#_clipPath_Snv8ALvFGOkBlgIRzRS5TdvtvUH6HxKE)"><g><clipPath id="_clipPath_EVU7LUdpwqcNq7MPRnNL2EDe6qtdWFA1"><path d=" M 0 0 L 0 500 L 750 500 L 750 0 L 0 0 Z " fill="rgb(255,255,255)"/></clipPath><g clip-path="url(#_clipPath_EVU7LUdpwqcNq7MPRnNL2EDe6qtdWFA1)"><clipPath id="_clipPath_efGTjoGhXjsPbPcczgW4iPvFTBq1rLeC"><path d=" M 750 500 L 0 500 L 0 0 L 750 0 L 750 500 Z " fill="rgb(255,255,255)"/></clipPath><g clip-path="url(#_clipPath_efGTjoGhXjsPbPcczgW4iPvFTBq1rLeC)"><path d=" M 751.658 501.068 L -1.656 501.068 L -1.656 -1.142 L 751.658 -1.142 L 751.658 501.068 Z " fill="rgb(255,255,255)"/><path d=" M 681.499 59.75 C 681.499 78.39 666.389 93.5 647.749 93.5 C 629.109 93.5 613.999 78.39 613.999 59.75 C 613.999 41.11 629.109 26 647.749 26 C 666.389 26 681.499 41.11 681.499 59.75 Z " fill="rgb(239,91,82)"/><path d=" M 95.908 99.839 L 95.908 -0.489 L 197.278 -0.489 L 197.278 99.839 L 95.908 99.839 Z " fill="none"/><path d=" M 651.37 98.435 L 751.658 98.435 L 751.658 199.764 L 651.37 199.764 L 651.37 98.435 Z " fill="none"/><path d=" M 93.423 429.263 C 111.76 429.263 126.624 414.399 126.624 396.063 C 126.624 377.727 111.76 362.863 93.423 362.863 C 75.088 362.863 60.224 377.727 60.224 396.063 C 60.224 414.399 75.088 429.263 93.423 429.263 Z " fill="rgb(239,91,82)"/><path d=" M 0 401.93 C 0 456.371 106.842 499 220 499 C 220.052 499 208 499.5 208 499.5 L 208 500.5 L 0 500.5 L 0 401.93 Z " fill="rgb(70,73,74)"/></g></g></g></g></svg>