<svg viewBox="0 0 60 56" xmlns="http://www.w3.org/2000/svg"><g id="Page-1" fill="none" fill-rule="evenodd"><g id="020---Hammer" fill-rule="nonzero" transform="translate(-1 -1)"><g id="Icons" transform="translate(0 1)"><path id="Shape" d="m33.4 27.83-3.52 3.52-4.92-4.93 3.51-3.51z" fill="#9e9e9e"/><path id="Shape" d="m44.65 16.58-11.25 11.25-4.93-4.92 11.25-11.25z" fill="#607d8b"/><path id="Shape" d="m12.2010876 24.4290824h7.933c1.1045695 0 2 .8954305 2 2v26.816c0 2.209139-1.790861 4-4 4h-3.933c-2.209139 0-4-1.790861-4-4v-26.816c0-1.1045695.8954305-2 2-2z" fill="#9d27b0" transform="matrix(.707 .707 -.707 .707 33.612 .529)"/><path id="Shape" d="m30.576 32.042-5.61-5.61c-.7809997-.7807639-2.0470003-.7807639-2.828 0l-.086.086 5.524 5.524c.7807639.7809997.7807639 2.0470003 0 2.828l-18.962 18.962c-.37890547.3797502-.83060136.6790668-1.328.88 1.48853145.6018895 3.1927037.255385 4.328-.88l18.962-18.962c.7807639-.7809997.7807639-2.0470003 0-2.828z" fill="#6a1b9a"/><path id="Shape" d="m39.724 11.658c-.439-5.713-5.823-7.031-9.8-7.217-.4630668-.03503072-.8410815-.38424174-.9126271-.84308725-.0715455-.45884552.1822077-.90656506.6126271-1.08091275 9.813-4.107 16.429 1.406 16.429 1.406l5.274 5.277c.5821062.58288988.5821062 1.5271101 0 2.11-.2799869.2795029-.4373226.6588808-.4373226 1.0545s.1573357.7749971.4373226 1.0545l2.109 2.11c.5828899.5821062 1.5271101.5821062 2.11 0 .2795029-.2799869.6588808-.4373226 1.0545-.4373226s.7749971.1573357 1.0545.4373226l1.758 1.757c.3730494.3730151.5826292.8789527.5826292 1.4065s-.2095798 1.0334849-.5826292 1.4065l-4.922 4.922c-.3730151.3730494-.8789527.5826292-1.4065.5826292s-1.0334849-.2095798-1.4065-.5826292l-2.109-2.109c-.1868004-.1864626-.2917723-.439563-.2917723-.7035s.1049719-.5170374.2917723-.7035l.7-.7c.3850802-.3895663.3850802-1.0164337 0-1.406l-2.81-2.819c-.3895663-.3850802-1.0164337-.3850802-1.406 0-.1862917.1867398-.4392267.2916869-.703.2916869s-.5167083-.1049471-.703-.2916869z" fill="#7f8e94"/><path id="Shape" d="m43.053 3.923 5.274 5.277c.5821062.58288988.5821062 1.5271101 0 2.11-.2799869.2795029-.4373226.6588808-.4373226 1.0545s.1573357.7749971.4373226 1.0545l2.109 2.11c.5825469.5819915 1.5264531.5819915 2.109 0 .1558359-.1529987.3441768-.2688745.551-.339l-1.77-1.771c-.2799869-.2795029-.4373226-.6588808-.4373226-1.0545s.1573357-.7749971.4373226-1.0545c.5821062-.5828899.5821062-1.52711012 0-2.11l-5.273-5.277c-3.1016894-2.22505048-6.9110222-3.23679335-10.708-2.844 2.7822912.21971675 5.4497727 1.20393021 7.708 2.844z" fill="#545c60"/><path id="Shape" d="m59.413 17.283-1.758-1.757c-.2795029-.2799869-.6588808-.4373226-1.0545-.4373226s-.7749971.1573357-1.0545.4373226c-.1561468.1523672-.3444147.2678564-.551.338l1.419 1.419c.7757361.7772241.7757361 2.0357759 0 2.813l-4.829 4.828.094.094c.3730151.3730494.8789527.5826292 1.4065.5826292s1.0334849-.2095798 1.4065-.5826292l4.921-4.918c.373783-.3734377.5838011-.8801352.5838011-1.4085s-.2100181-1.0350623-.5838011-1.4085z" fill="#545c60"/><g fill="#f5f5f5"><path id="Shape" d="m11.6 43.6c-.4043959-.0000863-.7689341-.2437275-.923678-.6173454-.1547439-.373618-.0692299-.8036603.216678-1.0896546l10.545-10.55c.3904653-.3907415 1.0237585-.3909653 1.4145-.0005s.3909653 1.0237585.0005 1.4145l-10.547 10.543c-.1860967.1898744-.4401437.2978264-.706.3z"/><path id="Shape" d="m6.676 48.519c-.4043959-.0000863-.76893405-.2437275-.92367798-.6173454-.15474393-.373618-.06922994-.8036603.21667798-1.0896546l2.109-2.112c.25107447-.2599566.62287789-.3642126.97250732-.2726972.34962944.0915155.6226744.3645604.71418984.7141899.09151544.3496294-.01274058.7214328-.27269716.9725073l-2.109 2.112c-.18749273.1875494-.44180519.2929434-.707.293z"/></g></g><g id="Layer_2" fill="#000" transform="translate(1)"><path id="Shape" d="m59.12 17.576-1.758-1.758c-.985793-.9410827-2.537207-.9410827-3.523 0-.0925666.0933127-.2185625.1457983-.35.1457983s-.2574334-.0524856-.35-.1457983l-2.11-2.109c-.0933127-.0925666-.1457983-.2185625-.1457983-.35s.0524856-.2574334.1457983-.35c.4680096-.4669406.7310247-1.1008899.7310247-1.762s-.2630151-1.2950594-.7310247-1.762l-5.34-5.335c-.29-.24-7.2-5.853-17.458-1.56-.8740365.36228712-1.3770774 1.28508398-1.208 2.216.1464137.91947037.9253887 1.60527056 1.856 1.634 3.711.173 8.173 1.35 8.789 5.86l-10.9 10.9-2.949 2.95c-1.1401193-.5157434-2.4790581-.2891599-3.386.573l-18.964 18.964c-1.94926942 1.9539823-1.94926942 5.1170177 0 7.071l2.781 2.781c1.95398226 1.9492694 5.11701774 1.9492694 7.071 0l18.961-18.961c1.1662192-1.1670853 1.1711335-3.0568651.011-4.23l2.807-2.809 10.742-10.739c.1654629.0463324.3361953.0712029.508.074.5265969.0024577 1.0317086-.2086068 1.4-.585l2.812 2.805-.7.7c-.7754472.7800749-.7754472 2.0399251 0 2.82l2.11 2.11c1.1684066 1.1644675 3.0585934 1.1644675 4.227 0l4.921-4.924c1.1630238-1.1678323 1.1630238-3.0561677 0-4.224zm-31.646 7.747 3.508 3.507-2.1 2.1-2.341-2.341-1.167-1.168zm1.394 9.84-18.961 18.962c-1.17275366 1.169058-3.07024634 1.169058-4.243 0l-2.781-2.781c-1.16905805-1.1727537-1.16905805-3.0702463 0-4.243l18.962-18.961c.3904999-.3903819 1.0235001-.3903819 1.414 0l.01.011 5.6 5.6c.3897159.3903851.3897159 1.0226149 0 1.413zm3.532-7.747-3.508-3.507 9.837-9.837 3.507 3.508zm25.31-7.027-4.922 4.922c-.3870661.3854708-1.0129339.3854708-1.4 0l-2.11-2.1.7-.7c.7754472-.7800749.7754472-2.0399251 0-2.82l-2.812-2.812c-.3733492-.3755881-.8814204-.5862343-1.411-.585-.5263826-.0023774-1.0313447.2082639-1.4.584l-4.668-4.668c-.542-4.714-4.33-7.465-10.678-7.765 9.106-3.809 15.153 1.046 15.338 1.19l5.273 5.275c.0943178.0920267.1475018.2182246.1475018.35s-.053184.2579733-.1475018.35c-.9712716.9735027-.9712716 2.5494973 0 3.523l2.11 2.11c.9749768.9686465 2.5490232.9686465 3.524 0 .0922992-.093812.2183952-.1466441.35-.1466441s.2577008.0528321.35.1466441l1.758 1.758c.3759092.3872651.3732432 1.0039993-.006 1.388z"/><path id="Shape" d="m53 39c-.5522847 0-1 .4477153-1 1v8c0 .5522847.4477153 1 1 1s1-.4477153 1-1v-8c0-.5522847-.4477153-1-1-1z"/><path id="Shape" d="m53 30c-.5522847 0-1 .4477153-1 1v4c0 .5522847.4477153 1 1 1s1-.4477153 1-1v-4c0-.5522847-.4477153-1-1-1z"/><path id="Shape" d="m58 26c-.5522847 0-1 .4477153-1 1v2c0 .5522847.4477153 1 1 1s1-.4477153 1-1v-2c0-.5522847-.4477153-1-1-1z"/><path id="Shape" d="m58 32c-.5522847 0-1 .4477153-1 1v14c0 .5522847.4477153 1 1 1s1-.4477153 1-1v-14c0-.5522847-.4477153-1-1-1z"/><path id="Shape" d="m58 51c-.5522847 0-1 .4477153-1 1v2c0 .5522847.4477153 1 1 1s1-.4477153 1-1v-2c0-.5522847-.4477153-1-1-1z"/></g></g></g></svg>